<mxfile modified="2022-10-06T12:49:50.282Z" host="app.diagrams.net" agent="5.0 (Windows NT 10.0; Win64; x64) AppleWebKit/537.36 (KHTML, like Gecko) Chrome/105.0.0.0 Safari/537.36" etag="WzVfLUVb6Sucz0lVhi4R" version="20.4.0" type="github" pages="2">
  <diagram id="l8hXMBHkgcEJcSW0mbfh" name="Version1">
    <mxGraphModel dx="2591" dy="1589" grid="1" gridSize="10" guides="1" tooltips="1" connect="1" arrows="1" fold="1" page="1" pageScale="1" pageWidth="1169" pageHeight="827" math="0" shadow="0">
      <root>
        <mxCell id="0" />
        <mxCell id="1" parent="0" />
        <mxCell id="G85GCYi_cauBch0uA3sk-117" value="" style="group" parent="1" vertex="1" connectable="0">
          <mxGeometry x="-18" y="-140" width="898" height="967" as="geometry" />
        </mxCell>
        <mxCell id="8--HhbSZYtI3ddgJnD71-21" style="edgeStyle=none;rounded=0;orthogonalLoop=1;jettySize=auto;html=1;sourcePerimeterSpacing=5;endArrow=none;endFill=0;targetPerimeterSpacing=5;" parent="G85GCYi_cauBch0uA3sk-117" source="8--HhbSZYtI3ddgJnD71-12" edge="1">
          <mxGeometry relative="1" as="geometry">
            <mxPoint x="597" y="380.766550522648" as="targetPoint" />
          </mxGeometry>
        </mxCell>
        <mxCell id="8--HhbSZYtI3ddgJnD71-2" value="Mobile" style="shape=image;verticalLabelPosition=bottom;verticalAlign=top;imageAspect=0;aspect=fixed;image=data:image/svg+xml,PHN2ZyB4bWxucz0iaHR0cDovL3d3dy53My5vcmcvMjAwMC9zdmciIHZlcnNpb249IjEiIHZpZXdCb3g9IjAgMCA0OCA0OCIgZW5hYmxlLWJhY2tncm91bmQ9Im5ldyAwIDAgNDggNDgiPiYjeGE7ICAgIDxwYXRoIGZpbGw9IiMzNzQ3NEYiIGQ9Ik00LDM5VjdjMC0yLjIsMS44LTQsNC00aDIyYzIuMiwwLDQsMS44LDQsNHYzMmMwLDIuMi0xLjgsNC00LDRIOEM1LjgsNDMsNCw0MS4yLDQsMzl6Ii8+JiN4YTsgICAgPHBhdGggZmlsbD0iI0JCREVGQiIgZD0iTTMwLDZIOEM3LjQsNiw3LDYuNCw3LDd2MjljMCwwLjYsMC40LDEsMSwxaDIyYzAuNiwwLDEtMC40LDEtMVY3QzMxLDYuNCwzMC42LDYsMzAsNnoiLz4mI3hhOyAgICA8cmVjdCB4PSIxNSIgeT0iMzkiIGZpbGw9IiM3ODkwOUMiIHdpZHRoPSI2IiBoZWlnaHQ9IjIiLz4mI3hhOyAgICA8cGF0aCBmaWxsPSIjRTM4OTM5IiBkPSJNMjQsNDFWMTdjMC0yLjIsMS44LTQsNC00aDEyYzIuMiwwLDQsMS44LDQsNHYyNGMwLDIuMi0xLjgsNC00LDRIMjhDMjUuOCw0NSwyNCw0My4yLDI0LDQxeiIvPiYjeGE7ICAgIDxwYXRoIGZpbGw9IiNGRkYzRTAiIGQ9Ik00MCwxNkgyOGMtMC42LDAtMSwwLjQtMSwxdjIyYzAsMC42LDAuNCwxLDEsMWgxMmMwLjYsMCwxLTAuNCwxLTFWMTdDNDEsMTYuNCw0MC42LDE2LDQwLDE2eiIvPiYjeGE7ICAgIDxjaXJjbGUgZmlsbD0iI0E2NjQyQSIgY3g9IjM0IiBjeT0iNDIuNSIgcj0iMS41Ii8+JiN4YTs8L3N2Zz4=;labelBackgroundColor=#ffffff;" parent="G85GCYi_cauBch0uA3sk-117" vertex="1">
          <mxGeometry x="78" y="490" width="48" height="48" as="geometry" />
        </mxCell>
        <mxCell id="8--HhbSZYtI3ddgJnD71-9" value="Reporting" style="shape=image;verticalLabelPosition=bottom;verticalAlign=top;imageAspect=0;aspect=fixed;image=data:image/svg+xml,PHN2ZyB4bWxucz0iaHR0cDovL3d3dy53My5vcmcvMjAwMC9zdmciIHZlcnNpb249IjEiIHZpZXdCb3g9IjAgMCA0OCA0OCIgZW5hYmxlLWJhY2tncm91bmQ9Im5ldyAwIDAgNDggNDgiPiYjeGE7ICAgIDxwYXRoIGZpbGw9IiM3ODkwOUMiIGQ9Ik00MCw0MUg4Yy0yLjIsMC00LTEuOC00LTRsMC0yMC45YzAtMS4zLDAuNi0yLjUsMS43LTMuM0wyNCwwbDE4LjMsMTIuOGMxLjEsMC43LDEuNywyLDEuNywzLjNWMzcgQzQ0LDM5LjIsNDIuMiw0MSw0MCw0MXoiLz4mI3hhOyAgICA8cmVjdCB4PSIxMiIgeT0iMTEiIGZpbGw9IiNmZmYiIHdpZHRoPSIyNCIgaGVpZ2h0PSIyMiIvPiYjeGE7ICAgIDxwb2x5Z29uIGZpbGw9IiM5QzI3QjAiIHBvaW50cz0iMjQsMTMuNiAxOCwyMS40IDMwLDIxLjQiLz4mI3hhOyAgICA8cGF0aCBmaWxsPSIjQ0ZEOERDIiBkPSJNNDAsNDFIOGMtMi4yLDAtNC0xLjgtNC00bDAtMjBsMjAsMTNsMjAtMTN2MjBDNDQsMzkuMiw0Mi4yLDQxLDQwLDQxeiIvPiYjeGE7ICAgIDxwb2x5Z29uIGZpbGw9IiM5QzI3QjAiIHBvaW50cz0iMjQsMjggMjYsMjYuNyAyNiwyMCAyMiwyMCAyMiwyNi43Ii8+JiN4YTs8L3N2Zz4=;labelBackgroundColor=#ffffff;" parent="G85GCYi_cauBch0uA3sk-117" vertex="1">
          <mxGeometry x="424.86000000000007" y="671" width="48" height="48" as="geometry" />
        </mxCell>
        <mxCell id="8--HhbSZYtI3ddgJnD71-12" value="Security" style="shape=image;verticalLabelPosition=bottom;verticalAlign=top;imageAspect=0;aspect=fixed;image=data:image/svg+xml,PHN2ZyB4bWxucz0iaHR0cDovL3d3dy53My5vcmcvMjAwMC9zdmciIHZlcnNpb249IjEiIHZpZXdCb3g9IjAgMCA0OCA0OCIgZW5hYmxlLWJhY2tncm91bmQ9Im5ldyAwIDAgNDggNDgiPiYjeGE7ICAgIDxwYXRoIGZpbGw9IiM0MjQyNDIiIGQ9Ik0yNCw0Yy01LjUsMC0xMCw0LjUtMTAsMTB2NGg0di00YzAtMy4zLDIuNy02LDYtNnM2LDIuNyw2LDZ2NGg0di00QzM0LDguNSwyOS41LDQsMjQsNHoiLz4mI3hhOyAgICA8cGF0aCBmaWxsPSIjRkI4QzAwIiBkPSJNMzYsNDRIMTJjLTIuMiwwLTQtMS44LTQtNFYyMmMwLTIuMiwxLjgtNCw0LTRoMjRjMi4yLDAsNCwxLjgsNCw0djE4QzQwLDQyLjIsMzguMiw0NCwzNiw0NHoiLz4mI3hhOyAgICA8Y2lyY2xlIGZpbGw9IiNDNzZFMDAiIGN4PSIyNCIgY3k9IjMxIiByPSIzIi8+JiN4YTs8L3N2Zz4=;labelBackgroundColor=#ffffff;" parent="G85GCYi_cauBch0uA3sk-117" vertex="1">
          <mxGeometry x="341" y="360" width="48" height="48" as="geometry" />
        </mxCell>
        <mxCell id="8--HhbSZYtI3ddgJnD71-13" value="" style="shape=image;verticalLabelPosition=bottom;verticalAlign=top;imageAspect=0;aspect=fixed;image=data:image/svg+xml,PHN2ZyB4bWxucz0iaHR0cDovL3d3dy53My5vcmcvMjAwMC9zdmciIHZlcnNpb249IjEiIHZpZXdCb3g9IjAgMCA0OCA0OCIgZW5hYmxlLWJhY2tncm91bmQ9Im5ldyAwIDAgNDggNDgiPiYjeGE7ICAgIDxwYXRoIGZpbGw9IiNDRkQ4REMiIGQ9Ik01LDM4VjE0aDM4djI0YzAsMi4yLTEuOCw0LTQsNEg5QzYuOCw0Miw1LDQwLjIsNSwzOHoiLz4mI3hhOyAgICA8cGF0aCBmaWxsPSIjRjQ0MzM2IiBkPSJNNDMsMTB2Nkg1di02YzAtMi4yLDEuOC00LDQtNGgzMEM0MS4yLDYsNDMsNy44LDQzLDEweiIvPiYjeGE7ICAgIDxnIGZpbGw9IiNCNzFDMUMiPiYjeGE7ICAgICAgICA8Y2lyY2xlIGN4PSIzMyIgY3k9IjEwIiByPSIzIi8+JiN4YTsgICAgICAgIDxjaXJjbGUgY3g9IjE1IiBjeT0iMTAiIHI9IjMiLz4mI3hhOyAgICA8L2c+JiN4YTsgICAgPGcgZmlsbD0iI0IwQkVDNSI+JiN4YTsgICAgICAgIDxwYXRoIGQ9Ik0zMywzYy0xLjEsMC0yLDAuOS0yLDJ2NWMwLDEuMSwwLjksMiwyLDJzMi0wLjksMi0yVjVDMzUsMy45LDM0LjEsMywzMywzeiIvPiYjeGE7ICAgICAgICA8cGF0aCBkPSJNMTUsM2MtMS4xLDAtMiwwLjktMiwydjVjMCwxLjEsMC45LDIsMiwyczItMC45LDItMlY1QzE3LDMuOSwxNi4xLDMsMTUsM3oiLz4mI3hhOyAgICA8L2c+JiN4YTsgICAgPGcgZmlsbD0iI0IwQkVDNSI+JiN4YTsgICAgICAgIDxyZWN0IHg9IjEzIiB5PSIyMSIgd2lkdGg9IjYiIGhlaWdodD0iNiIvPiYjeGE7ICAgICAgICA8cmVjdCB4PSIyMSIgeT0iMjEiIHdpZHRoPSI2IiBoZWlnaHQ9IjYiLz4mI3hhOyAgICAgICAgPHJlY3QgeD0iMjkiIHk9IjIxIiB3aWR0aD0iNiIgaGVpZ2h0PSI2Ii8+JiN4YTsgICAgICAgIDxyZWN0IHg9IjEzIiB5PSIyOSIgd2lkdGg9IjYiIGhlaWdodD0iNiIvPiYjeGE7ICAgICAgICA8cmVjdCB4PSIyMSIgeT0iMjkiIHdpZHRoPSI2IiBoZWlnaHQ9IjYiLz4mI3hhOyAgICA8L2c+JiN4YTsgICAgPHJlY3QgeD0iMjkiIHk9IjI5IiBmaWxsPSIjRjQ0MzM2IiB3aWR0aD0iNiIgaGVpZ2h0PSI2Ii8+JiN4YTs8L3N2Zz4=;labelBackgroundColor=#ffffff;" parent="G85GCYi_cauBch0uA3sk-117" vertex="1">
          <mxGeometry x="798" y="318" width="48" height="48" as="geometry" />
        </mxCell>
        <mxCell id="8--HhbSZYtI3ddgJnD71-14" value="Dashboard" style="shape=image;verticalLabelPosition=bottom;verticalAlign=top;imageAspect=0;aspect=fixed;image=data:image/svg+xml,PHN2ZyB4bWxucz0iaHR0cDovL3d3dy53My5vcmcvMjAwMC9zdmciIHZlcnNpb249IjEiIHZpZXdCb3g9IjAgMCA0OCA0OCIgZW5hYmxlLWJhY2tncm91bmQ9Im5ldyAwIDAgNDggNDgiPiYjeGE7ICAgIDxwb2x5Z29uIGZpbGw9IiM5MENBRjkiIHBvaW50cz0iMzYuOSwxMy44IDM1LjEsMTAuMiA3LjUsMjQgMzUuMSwzNy44IDM2LjksMzQuMiAxNi41LDI0Ii8+JiN4YTsgICAgPHJlY3QgeD0iNiIgeT0iMTgiIGZpbGw9IiNEODFCNjAiIHdpZHRoPSIxMiIgaGVpZ2h0PSIxMiIvPiYjeGE7ICAgIDxnIGZpbGw9IiMyMTk2RjMiPiYjeGE7ICAgICAgICA8cmVjdCB4PSIzMCIgeT0iNiIgd2lkdGg9IjEyIiBoZWlnaHQ9IjEyIi8+JiN4YTsgICAgICAgIDxyZWN0IHg9IjMwIiB5PSIzMCIgd2lkdGg9IjEyIiBoZWlnaHQ9IjEyIi8+JiN4YTsgICAgPC9nPiYjeGE7PC9zdmc+;labelBackgroundColor=#ffffff;" parent="G85GCYi_cauBch0uA3sk-117" vertex="1">
          <mxGeometry x="550" y="671" width="48" height="48" as="geometry" />
        </mxCell>
        <mxCell id="G85GCYi_cauBch0uA3sk-3" value="Outside User" style="swimlane;" parent="G85GCYi_cauBch0uA3sk-117" vertex="1">
          <mxGeometry x="138" width="200" height="200" as="geometry" />
        </mxCell>
        <mxCell id="8--HhbSZYtI3ddgJnD71-16" value="User" style="shape=image;verticalLabelPosition=bottom;verticalAlign=top;imageAspect=0;aspect=fixed;image=data:image/svg+xml,PHN2ZyB4bWxucz0iaHR0cDovL3d3dy53My5vcmcvMjAwMC9zdmciIHZlcnNpb249IjEiIHZpZXdCb3g9IjAgMCA0OCA0OCIgZW5hYmxlLWJhY2tncm91bmQ9Im5ldyAwIDAgNDggNDgiPiYjeGE7ICAgIDxwb2x5Z29uIGZpbGw9IiNGRjk4MDAiIHBvaW50cz0iMjQsMzcgMTksMzEgMTksMjUgMjksMjUgMjksMzEiLz4mI3hhOyAgICA8ZyBmaWxsPSIjRkZBNzI2Ij4mI3hhOyAgICAgICAgPGNpcmNsZSBjeD0iMzMiIGN5PSIxOSIgcj0iMiIvPiYjeGE7ICAgICAgICA8Y2lyY2xlIGN4PSIxNSIgY3k9IjE5IiByPSIyIi8+JiN4YTsgICAgPC9nPiYjeGE7ICAgIDxwYXRoIGZpbGw9IiNGRkI3NEQiIGQ9Ik0zMywxM2MwLTcuNi0xOC01LTE4LDBjMCwxLjEsMCw1LjksMCw3YzAsNSw0LDksOSw5czktNCw5LTlDMzMsMTguOSwzMywxNC4xLDMzLDEzeiIvPiYjeGE7ICAgIDxwYXRoIGZpbGw9IiM0MjQyNDIiIGQ9Ik0yNCw0Yy02LjEsMC0xMCw0LjktMTAsMTFjMCwwLjgsMCwyLjMsMCwyLjNsMiwxLjd2LTVsMTItNGw0LDR2NWwyLTEuN2MwLDAsMC0xLjUsMC0yLjNjMC00LTEtOC02LTlsLTEtMiBIMjR6Ii8+JiN4YTsgICAgPGcgZmlsbD0iIzc4NDcxOSI+JiN4YTsgICAgICAgIDxjaXJjbGUgY3g9IjI4IiBjeT0iMTkiIHI9IjEiLz4mI3hhOyAgICAgICAgPGNpcmNsZSBjeD0iMjAiIGN5PSIxOSIgcj0iMSIvPiYjeGE7ICAgIDwvZz4mI3hhOyAgICA8cG9seWdvbiBmaWxsPSIjZmZmIiBwb2ludHM9IjI0LDQzIDE5LDMxIDI0LDMyIDI5LDMxIi8+JiN4YTsgICAgPHBvbHlnb24gZmlsbD0iI0QzMkYyRiIgcG9pbnRzPSIyMywzNSAyMi4zLDM5LjUgMjQsNDMuNSAyNS43LDM5LjUgMjUsMzUgMjYsMzQgMjQsMzIgMjIsMzQiLz4mI3hhOyAgICA8cGF0aCBmaWxsPSIjNTQ2RTdBIiBkPSJNMjksMzFMMjksMzFsLTUsMTJsLTUtMTJjMCwwLTExLDItMTEsMTNoMzJDNDAsMzMsMjksMzEsMjksMzF6Ii8+JiN4YTs8L3N2Zz4=;labelBackgroundColor=#ffffff;" parent="G85GCYi_cauBch0uA3sk-3" vertex="1">
          <mxGeometry x="22" y="50" width="48" height="48" as="geometry" />
        </mxCell>
        <mxCell id="8--HhbSZYtI3ddgJnD71-18" value="User" style="shape=image;verticalLabelPosition=bottom;verticalAlign=top;imageAspect=0;aspect=fixed;image=data:image/svg+xml,PHN2ZyB4bWxucz0iaHR0cDovL3d3dy53My5vcmcvMjAwMC9zdmciIHZlcnNpb249IjEiIHZpZXdCb3g9IjAgMCA0OCA0OCIgZW5hYmxlLWJhY2tncm91bmQ9Im5ldyAwIDAgNDggNDgiPiYjeGE7ICAgIDxwb2x5Z29uIGZpbGw9IiNGRjk4MDAiIHBvaW50cz0iMjQsMzcgMTksMzEgMTksMjUgMjksMjUgMjksMzEiLz4mI3hhOyAgICA8ZyBmaWxsPSIjRkZBNzI2Ij4mI3hhOyAgICAgICAgPGNpcmNsZSBjeD0iMzMiIGN5PSIxOSIgcj0iMiIvPiYjeGE7ICAgICAgICA8Y2lyY2xlIGN4PSIxNSIgY3k9IjE5IiByPSIyIi8+JiN4YTsgICAgPC9nPiYjeGE7ICAgIDxwYXRoIGZpbGw9IiNGRkI3NEQiIGQ9Ik0zMywxM2MwLTcuNi0xOC01LTE4LDBjMCwxLjEsMCw1LjksMCw3YzAsNSw0LDksOSw5czktNCw5LTlDMzMsMTguOSwzMywxNC4xLDMzLDEzeiIvPiYjeGE7ICAgIDxwYXRoIGZpbGw9IiM0MjQyNDIiIGQ9Ik0yNCw0Yy02LjEsMC0xMCw0LjktMTAsMTFjMCwwLjgsMCwyLjMsMCwyLjNsMiwxLjd2LTVsMTItNGw0LDR2NWwyLTEuN2MwLDAsMC0xLjUsMC0yLjNjMC00LTEtOC02LTlsLTEtMiBIMjR6Ii8+JiN4YTsgICAgPGcgZmlsbD0iIzc4NDcxOSI+JiN4YTsgICAgICAgIDxjaXJjbGUgY3g9IjI4IiBjeT0iMTkiIHI9IjEiLz4mI3hhOyAgICAgICAgPGNpcmNsZSBjeD0iMjAiIGN5PSIxOSIgcj0iMSIvPiYjeGE7ICAgIDwvZz4mI3hhOyAgICA8cG9seWdvbiBmaWxsPSIjZmZmIiBwb2ludHM9IjI0LDQzIDE5LDMxIDI0LDMyIDI5LDMxIi8+JiN4YTsgICAgPHBvbHlnb24gZmlsbD0iI0QzMkYyRiIgcG9pbnRzPSIyMywzNSAyMi4zLDM5LjUgMjQsNDMuNSAyNS43LDM5LjUgMjUsMzUgMjYsMzQgMjQsMzIgMjIsMzQiLz4mI3hhOyAgICA8cGF0aCBmaWxsPSIjNTQ2RTdBIiBkPSJNMjksMzFMMjksMzFsLTUsMTJsLTUtMTJjMCwwLTExLDItMTEsMTNoMzJDNDAsMzMsMjksMzEsMjksMzF6Ii8+JiN4YTs8L3N2Zz4=;labelBackgroundColor=#ffffff;" parent="G85GCYi_cauBch0uA3sk-3" vertex="1">
          <mxGeometry x="102" y="50" width="48" height="48" as="geometry" />
        </mxCell>
        <mxCell id="8--HhbSZYtI3ddgJnD71-17" value="User" style="shape=image;verticalLabelPosition=bottom;verticalAlign=top;imageAspect=0;aspect=fixed;image=data:image/svg+xml,PHN2ZyB4bWxucz0iaHR0cDovL3d3dy53My5vcmcvMjAwMC9zdmciIHZlcnNpb249IjEiIHZpZXdCb3g9IjAgMCA0OCA0OCIgZW5hYmxlLWJhY2tncm91bmQ9Im5ldyAwIDAgNDggNDgiPiYjeGE7ICAgIDxwb2x5Z29uIGZpbGw9IiNGRjk4MDAiIHBvaW50cz0iMjQsMzcgMTksMzEgMTksMjUgMjksMjUgMjksMzEiLz4mI3hhOyAgICA8ZyBmaWxsPSIjRkZBNzI2Ij4mI3hhOyAgICAgICAgPGNpcmNsZSBjeD0iMzMiIGN5PSIxOSIgcj0iMiIvPiYjeGE7ICAgICAgICA8Y2lyY2xlIGN4PSIxNSIgY3k9IjE5IiByPSIyIi8+JiN4YTsgICAgPC9nPiYjeGE7ICAgIDxwYXRoIGZpbGw9IiNGRkI3NEQiIGQ9Ik0zMywxM2MwLTcuNi0xOC01LTE4LDBjMCwxLjEsMCw1LjksMCw3YzAsNSw0LDksOSw5czktNCw5LTlDMzMsMTguOSwzMywxNC4xLDMzLDEzeiIvPiYjeGE7ICAgIDxwYXRoIGZpbGw9IiM0MjQyNDIiIGQ9Ik0yNCw0Yy02LjEsMC0xMCw0LjktMTAsMTFjMCwwLjgsMCwyLjMsMCwyLjNsMiwxLjd2LTVsMTItNGw0LDR2NWwyLTEuN2MwLDAsMC0xLjUsMC0yLjNjMC00LTEtOC02LTlsLTEtMiBIMjR6Ii8+JiN4YTsgICAgPGcgZmlsbD0iIzc4NDcxOSI+JiN4YTsgICAgICAgIDxjaXJjbGUgY3g9IjI4IiBjeT0iMTkiIHI9IjEiLz4mI3hhOyAgICAgICAgPGNpcmNsZSBjeD0iMjAiIGN5PSIxOSIgcj0iMSIvPiYjeGE7ICAgIDwvZz4mI3hhOyAgICA8cG9seWdvbiBmaWxsPSIjZmZmIiBwb2ludHM9IjI0LDQzIDE5LDMxIDI0LDMyIDI5LDMxIi8+JiN4YTsgICAgPHBvbHlnb24gZmlsbD0iI0QzMkYyRiIgcG9pbnRzPSIyMywzNSAyMi4zLDM5LjUgMjQsNDMuNSAyNS43LDM5LjUgMjUsMzUgMjYsMzQgMjQsMzIgMjIsMzQiLz4mI3hhOyAgICA8cGF0aCBmaWxsPSIjNTQ2RTdBIiBkPSJNMjksMzFMMjksMzFsLTUsMTJsLTUtMTJjMCwwLTExLDItMTEsMTNoMzJDNDAsMzMsMjksMzEsMjksMzF6Ii8+JiN4YTs8L3N2Zz4=;labelBackgroundColor=#ffffff;" parent="G85GCYi_cauBch0uA3sk-3" vertex="1">
          <mxGeometry x="22" y="130" width="48" height="48" as="geometry" />
        </mxCell>
        <mxCell id="G85GCYi_cauBch0uA3sk-20" value="" style="shape=image;verticalLabelPosition=bottom;verticalAlign=top;imageAspect=0;aspect=fixed;image=data:image/svg+xml,PHN2ZyB4bWxucz0iaHR0cDovL3d3dy53My5vcmcvMjAwMC9zdmciIHZlcnNpb249IjEiIHZpZXdCb3g9IjAgMCA0OCA0OCIgZW5hYmxlLWJhY2tncm91bmQ9Im5ldyAwIDAgNDggNDgiPiYjeGE7ICAgIDxwb2x5Z29uIGZpbGw9IiNDRkQ4REMiIHBvaW50cz0iMzUsMzYgMzksMzYgMzksMjIgMjYsMjIgMjYsMTMgMjIsMTMgMjIsMjIgOSwyMiA5LDM2IDEzLDM2IDEzLDI2IDIyLDI2IDIyLDM2IDI2LDM2IDI2LDI2IDM1LDI2Ii8+JiN4YTsgICAgPHJlY3QgeD0iMTciIHk9IjYiIGZpbGw9IiMzRjUxQjUiIHdpZHRoPSIxNCIgaGVpZ2h0PSIxMCIvPiYjeGE7ICAgIDxyZWN0IHg9IjMyIiB5PSIzMiIgZmlsbD0iIzAwQkNENCIgd2lkdGg9IjEwIiBoZWlnaHQ9IjEwIi8+JiN4YTsgICAgPHJlY3QgeD0iNiIgeT0iMzIiIGZpbGw9IiMwMEJDRDQiIHdpZHRoPSIxMCIgaGVpZ2h0PSIxMCIvPiYjeGE7ICAgIDxyZWN0IHg9IjE5IiB5PSIzMiIgZmlsbD0iIzAwQkNENCIgd2lkdGg9IjEwIiBoZWlnaHQ9IjEwIi8+JiN4YTs8L3N2Zz4=" parent="G85GCYi_cauBch0uA3sk-3" vertex="1">
          <mxGeometry x="102" y="140" width="48" height="48" as="geometry" />
        </mxCell>
        <mxCell id="G85GCYi_cauBch0uA3sk-4" value="Local User" style="swimlane;" parent="G85GCYi_cauBch0uA3sk-117" vertex="1">
          <mxGeometry x="368" width="200" height="200" as="geometry" />
        </mxCell>
        <mxCell id="G85GCYi_cauBch0uA3sk-5" value="User" style="shape=image;verticalLabelPosition=bottom;verticalAlign=top;imageAspect=0;aspect=fixed;image=data:image/svg+xml,PHN2ZyB4bWxucz0iaHR0cDovL3d3dy53My5vcmcvMjAwMC9zdmciIHZlcnNpb249IjEiIHZpZXdCb3g9IjAgMCA0OCA0OCIgZW5hYmxlLWJhY2tncm91bmQ9Im5ldyAwIDAgNDggNDgiPiYjeGE7ICAgIDxwb2x5Z29uIGZpbGw9IiNGRjk4MDAiIHBvaW50cz0iMjQsMzcgMTksMzEgMTksMjUgMjksMjUgMjksMzEiLz4mI3hhOyAgICA8ZyBmaWxsPSIjRkZBNzI2Ij4mI3hhOyAgICAgICAgPGNpcmNsZSBjeD0iMzMiIGN5PSIxOSIgcj0iMiIvPiYjeGE7ICAgICAgICA8Y2lyY2xlIGN4PSIxNSIgY3k9IjE5IiByPSIyIi8+JiN4YTsgICAgPC9nPiYjeGE7ICAgIDxwYXRoIGZpbGw9IiNGRkI3NEQiIGQ9Ik0zMywxM2MwLTcuNi0xOC01LTE4LDBjMCwxLjEsMCw1LjksMCw3YzAsNSw0LDksOSw5czktNCw5LTlDMzMsMTguOSwzMywxNC4xLDMzLDEzeiIvPiYjeGE7ICAgIDxwYXRoIGZpbGw9IiM0MjQyNDIiIGQ9Ik0yNCw0Yy02LjEsMC0xMCw0LjktMTAsMTFjMCwwLjgsMCwyLjMsMCwyLjNsMiwxLjd2LTVsMTItNGw0LDR2NWwyLTEuN2MwLDAsMC0xLjUsMC0yLjNjMC00LTEtOC02LTlsLTEtMiBIMjR6Ii8+JiN4YTsgICAgPGcgZmlsbD0iIzc4NDcxOSI+JiN4YTsgICAgICAgIDxjaXJjbGUgY3g9IjI4IiBjeT0iMTkiIHI9IjEiLz4mI3hhOyAgICAgICAgPGNpcmNsZSBjeD0iMjAiIGN5PSIxOSIgcj0iMSIvPiYjeGE7ICAgIDwvZz4mI3hhOyAgICA8cG9seWdvbiBmaWxsPSIjZmZmIiBwb2ludHM9IjI0LDQzIDE5LDMxIDI0LDMyIDI5LDMxIi8+JiN4YTsgICAgPHBvbHlnb24gZmlsbD0iI0QzMkYyRiIgcG9pbnRzPSIyMywzNSAyMi4zLDM5LjUgMjQsNDMuNSAyNS43LDM5LjUgMjUsMzUgMjYsMzQgMjQsMzIgMjIsMzQiLz4mI3hhOyAgICA8cGF0aCBmaWxsPSIjNTQ2RTdBIiBkPSJNMjksMzFMMjksMzFsLTUsMTJsLTUtMTJjMCwwLTExLDItMTEsMTNoMzJDNDAsMzMsMjksMzEsMjksMzF6Ii8+JiN4YTs8L3N2Zz4=;labelBackgroundColor=#ffffff;" parent="G85GCYi_cauBch0uA3sk-4" vertex="1">
          <mxGeometry x="22" y="50" width="48" height="48" as="geometry" />
        </mxCell>
        <mxCell id="G85GCYi_cauBch0uA3sk-6" value="User" style="shape=image;verticalLabelPosition=bottom;verticalAlign=top;imageAspect=0;aspect=fixed;image=data:image/svg+xml,PHN2ZyB4bWxucz0iaHR0cDovL3d3dy53My5vcmcvMjAwMC9zdmciIHZlcnNpb249IjEiIHZpZXdCb3g9IjAgMCA0OCA0OCIgZW5hYmxlLWJhY2tncm91bmQ9Im5ldyAwIDAgNDggNDgiPiYjeGE7ICAgIDxwb2x5Z29uIGZpbGw9IiNGRjk4MDAiIHBvaW50cz0iMjQsMzcgMTksMzEgMTksMjUgMjksMjUgMjksMzEiLz4mI3hhOyAgICA8ZyBmaWxsPSIjRkZBNzI2Ij4mI3hhOyAgICAgICAgPGNpcmNsZSBjeD0iMzMiIGN5PSIxOSIgcj0iMiIvPiYjeGE7ICAgICAgICA8Y2lyY2xlIGN4PSIxNSIgY3k9IjE5IiByPSIyIi8+JiN4YTsgICAgPC9nPiYjeGE7ICAgIDxwYXRoIGZpbGw9IiNGRkI3NEQiIGQ9Ik0zMywxM2MwLTcuNi0xOC01LTE4LDBjMCwxLjEsMCw1LjksMCw3YzAsNSw0LDksOSw5czktNCw5LTlDMzMsMTguOSwzMywxNC4xLDMzLDEzeiIvPiYjeGE7ICAgIDxwYXRoIGZpbGw9IiM0MjQyNDIiIGQ9Ik0yNCw0Yy02LjEsMC0xMCw0LjktMTAsMTFjMCwwLjgsMCwyLjMsMCwyLjNsMiwxLjd2LTVsMTItNGw0LDR2NWwyLTEuN2MwLDAsMC0xLjUsMC0yLjNjMC00LTEtOC02LTlsLTEtMiBIMjR6Ii8+JiN4YTsgICAgPGcgZmlsbD0iIzc4NDcxOSI+JiN4YTsgICAgICAgIDxjaXJjbGUgY3g9IjI4IiBjeT0iMTkiIHI9IjEiLz4mI3hhOyAgICAgICAgPGNpcmNsZSBjeD0iMjAiIGN5PSIxOSIgcj0iMSIvPiYjeGE7ICAgIDwvZz4mI3hhOyAgICA8cG9seWdvbiBmaWxsPSIjZmZmIiBwb2ludHM9IjI0LDQzIDE5LDMxIDI0LDMyIDI5LDMxIi8+JiN4YTsgICAgPHBvbHlnb24gZmlsbD0iI0QzMkYyRiIgcG9pbnRzPSIyMywzNSAyMi4zLDM5LjUgMjQsNDMuNSAyNS43LDM5LjUgMjUsMzUgMjYsMzQgMjQsMzIgMjIsMzQiLz4mI3hhOyAgICA8cGF0aCBmaWxsPSIjNTQ2RTdBIiBkPSJNMjksMzFMMjksMzFsLTUsMTJsLTUtMTJjMCwwLTExLDItMTEsMTNoMzJDNDAsMzMsMjksMzEsMjksMzF6Ii8+JiN4YTs8L3N2Zz4=;labelBackgroundColor=#ffffff;" parent="G85GCYi_cauBch0uA3sk-4" vertex="1">
          <mxGeometry x="102" y="50" width="48" height="48" as="geometry" />
        </mxCell>
        <mxCell id="G85GCYi_cauBch0uA3sk-7" value="User" style="shape=image;verticalLabelPosition=bottom;verticalAlign=top;imageAspect=0;aspect=fixed;image=data:image/svg+xml,PHN2ZyB4bWxucz0iaHR0cDovL3d3dy53My5vcmcvMjAwMC9zdmciIHZlcnNpb249IjEiIHZpZXdCb3g9IjAgMCA0OCA0OCIgZW5hYmxlLWJhY2tncm91bmQ9Im5ldyAwIDAgNDggNDgiPiYjeGE7ICAgIDxwb2x5Z29uIGZpbGw9IiNGRjk4MDAiIHBvaW50cz0iMjQsMzcgMTksMzEgMTksMjUgMjksMjUgMjksMzEiLz4mI3hhOyAgICA8ZyBmaWxsPSIjRkZBNzI2Ij4mI3hhOyAgICAgICAgPGNpcmNsZSBjeD0iMzMiIGN5PSIxOSIgcj0iMiIvPiYjeGE7ICAgICAgICA8Y2lyY2xlIGN4PSIxNSIgY3k9IjE5IiByPSIyIi8+JiN4YTsgICAgPC9nPiYjeGE7ICAgIDxwYXRoIGZpbGw9IiNGRkI3NEQiIGQ9Ik0zMywxM2MwLTcuNi0xOC01LTE4LDBjMCwxLjEsMCw1LjksMCw3YzAsNSw0LDksOSw5czktNCw5LTlDMzMsMTguOSwzMywxNC4xLDMzLDEzeiIvPiYjeGE7ICAgIDxwYXRoIGZpbGw9IiM0MjQyNDIiIGQ9Ik0yNCw0Yy02LjEsMC0xMCw0LjktMTAsMTFjMCwwLjgsMCwyLjMsMCwyLjNsMiwxLjd2LTVsMTItNGw0LDR2NWwyLTEuN2MwLDAsMC0xLjUsMC0yLjNjMC00LTEtOC02LTlsLTEtMiBIMjR6Ii8+JiN4YTsgICAgPGcgZmlsbD0iIzc4NDcxOSI+JiN4YTsgICAgICAgIDxjaXJjbGUgY3g9IjI4IiBjeT0iMTkiIHI9IjEiLz4mI3hhOyAgICAgICAgPGNpcmNsZSBjeD0iMjAiIGN5PSIxOSIgcj0iMSIvPiYjeGE7ICAgIDwvZz4mI3hhOyAgICA8cG9seWdvbiBmaWxsPSIjZmZmIiBwb2ludHM9IjI0LDQzIDE5LDMxIDI0LDMyIDI5LDMxIi8+JiN4YTsgICAgPHBvbHlnb24gZmlsbD0iI0QzMkYyRiIgcG9pbnRzPSIyMywzNSAyMi4zLDM5LjUgMjQsNDMuNSAyNS43LDM5LjUgMjUsMzUgMjYsMzQgMjQsMzIgMjIsMzQiLz4mI3hhOyAgICA8cGF0aCBmaWxsPSIjNTQ2RTdBIiBkPSJNMjksMzFMMjksMzFsLTUsMTJsLTUtMTJjMCwwLTExLDItMTEsMTNoMzJDNDAsMzMsMjksMzEsMjksMzF6Ii8+JiN4YTs8L3N2Zz4=;labelBackgroundColor=#ffffff;" parent="G85GCYi_cauBch0uA3sk-4" vertex="1">
          <mxGeometry x="120" y="130" width="48" height="48" as="geometry" />
        </mxCell>
        <mxCell id="G85GCYi_cauBch0uA3sk-31" value="" style="shape=image;verticalLabelPosition=bottom;verticalAlign=top;imageAspect=0;aspect=fixed;image=data:image/svg+xml,PHN2ZyB4bWxucz0iaHR0cDovL3d3dy53My5vcmcvMjAwMC9zdmciIHZlcnNpb249IjEiIHZpZXdCb3g9IjAgMCA0OCA0OCIgZW5hYmxlLWJhY2tncm91bmQ9Im5ldyAwIDAgNDggNDgiPiYjeGE7ICAgIDxwb2x5Z29uIGZpbGw9IiNDRkQ4REMiIHBvaW50cz0iMzUsMzYgMzksMzYgMzksMjIgMjYsMjIgMjYsMTMgMjIsMTMgMjIsMjIgOSwyMiA5LDM2IDEzLDM2IDEzLDI2IDIyLDI2IDIyLDM2IDI2LDM2IDI2LDI2IDM1LDI2Ii8+JiN4YTsgICAgPHJlY3QgeD0iMTciIHk9IjYiIGZpbGw9IiMzRjUxQjUiIHdpZHRoPSIxNCIgaGVpZ2h0PSIxMCIvPiYjeGE7ICAgIDxyZWN0IHg9IjMyIiB5PSIzMiIgZmlsbD0iIzAwQkNENCIgd2lkdGg9IjEwIiBoZWlnaHQ9IjEwIi8+JiN4YTsgICAgPHJlY3QgeD0iNiIgeT0iMzIiIGZpbGw9IiMwMEJDRDQiIHdpZHRoPSIxMCIgaGVpZ2h0PSIxMCIvPiYjeGE7ICAgIDxyZWN0IHg9IjE5IiB5PSIzMiIgZmlsbD0iIzAwQkNENCIgd2lkdGg9IjEwIiBoZWlnaHQ9IjEwIi8+JiN4YTs8L3N2Zz4=" parent="G85GCYi_cauBch0uA3sk-4" vertex="1">
          <mxGeometry x="22" y="140" width="48" height="48" as="geometry" />
        </mxCell>
        <mxCell id="G85GCYi_cauBch0uA3sk-13" value="" style="shape=image;verticalLabelPosition=bottom;verticalAlign=top;imageAspect=0;aspect=fixed;image=data:image/svg+xml,PHN2ZyB4bWxucz0iaHR0cDovL3d3dy53My5vcmcvMjAwMC9zdmciIHZlcnNpb249IjEiIHZpZXdCb3g9IjAgMCA0OCA0OCIgZW5hYmxlLWJhY2tncm91bmQ9Im5ldyAwIDAgNDggNDgiPiYjeGE7ICAgIDxnIGZpbGw9IiMwMEJDRDQiPiYjeGE7ICAgICAgICA8cmVjdCB4PSIxOSIgeT0iMjIiIHdpZHRoPSIxMCIgaGVpZ2h0PSIyMCIvPiYjeGE7ICAgICAgICA8cmVjdCB4PSI2IiB5PSIxMiIgd2lkdGg9IjEwIiBoZWlnaHQ9IjMwIi8+JiN4YTsgICAgICAgIDxyZWN0IHg9IjMyIiB5PSI2IiB3aWR0aD0iMTAiIGhlaWdodD0iMzYiLz4mI3hhOyAgICA8L2c+JiN4YTs8L3N2Zz4=" parent="G85GCYi_cauBch0uA3sk-117" vertex="1">
          <mxGeometry x="659" y="222" width="48" height="48" as="geometry" />
        </mxCell>
        <mxCell id="G85GCYi_cauBch0uA3sk-14" value="" style="shape=image;verticalLabelPosition=bottom;verticalAlign=top;imageAspect=0;aspect=fixed;image=data:image/svg+xml,PHN2ZyB4bWxucz0iaHR0cDovL3d3dy53My5vcmcvMjAwMC9zdmciIHZlcnNpb249IjEiIHZpZXdCb3g9IjAgMCA0OCA0OCIgZW5hYmxlLWJhY2tncm91bmQ9Im5ldyAwIDAgNDggNDgiPiYjeGE7ICAgIDxnIGZpbGw9IiM0Q0FGNTAiPiYjeGE7ICAgICAgICA8cmVjdCB4PSI0MCIgeT0iMjEiIHdpZHRoPSI0IiBoZWlnaHQ9IjIzIi8+JiN4YTsgICAgICAgIDxyZWN0IHg9IjM0IiB5PSIyOCIgd2lkdGg9IjQiIGhlaWdodD0iMTYiLz4mI3hhOyAgICAgICAgPHJlY3QgeD0iMjgiIHk9IjIzIiB3aWR0aD0iNCIgaGVpZ2h0PSIyMSIvPiYjeGE7ICAgICAgICA8cmVjdCB4PSIyMiIgeT0iMjkiIHdpZHRoPSI0IiBoZWlnaHQ9IjE1Ii8+JiN4YTsgICAgICAgIDxyZWN0IHg9IjE2IiB5PSIzMiIgd2lkdGg9IjQiIGhlaWdodD0iMTIiLz4mI3hhOyAgICAgICAgPHJlY3QgeD0iMTAiIHk9IjMwIiB3aWR0aD0iNCIgaGVpZ2h0PSIxNCIvPiYjeGE7ICAgICAgICA8cmVjdCB4PSI0IiB5PSIzNCIgd2lkdGg9IjQiIGhlaWdodD0iMTAiLz4mI3hhOyAgICA8L2c+JiN4YTsgICAgPGcgZmlsbD0iIzM4OEUzQyI+JiN4YTsgICAgICAgIDxwb2x5Z29uIHBvaW50cz0iNDAuMSw5LjEgMzQsMTUuMiAzMCwxMS4yIDIwLDIxLjIgMTUsMTYuMiA0LjYsMjYuNiA3LjQsMjkuNCAxNSwyMS44IDIwLDI2LjggMzAsMTYuOCAzNCwyMC44IDQyLjksMTEuOSIvPiYjeGE7ICAgICAgICA8cG9seWdvbiBwb2ludHM9IjQ0LDggMzUsOCA0NCwxNyIvPiYjeGE7ICAgIDwvZz4mI3hhOzwvc3ZnPg==" parent="G85GCYi_cauBch0uA3sk-117" vertex="1">
          <mxGeometry x="543" y="780" width="70" height="70" as="geometry" />
        </mxCell>
        <mxCell id="G85GCYi_cauBch0uA3sk-35" style="edgeStyle=none;rounded=0;orthogonalLoop=1;jettySize=auto;html=1;" parent="G85GCYi_cauBch0uA3sk-117" source="8--HhbSZYtI3ddgJnD71-14" target="G85GCYi_cauBch0uA3sk-14" edge="1">
          <mxGeometry relative="1" as="geometry" />
        </mxCell>
        <mxCell id="G85GCYi_cauBch0uA3sk-17" value="" style="shape=image;verticalLabelPosition=bottom;verticalAlign=top;imageAspect=0;aspect=fixed;image=data:image/svg+xml,PHN2ZyB4bWxucz0iaHR0cDovL3d3dy53My5vcmcvMjAwMC9zdmciIHZlcnNpb249IjEiIHZpZXdCb3g9IjAgMCA0OCA0OCIgZW5hYmxlLWJhY2tncm91bmQ9Im5ldyAwIDAgNDggNDgiPiYjeGE7ICAgIDxyZWN0IHg9IjciIHk9IjQiIGZpbGw9IiNCQkRFRkIiIHdpZHRoPSIzNCIgaGVpZ2h0PSI0MCIvPiYjeGE7ICAgIDxnIGZpbGw9IiMyMTk2RjMiPiYjeGE7ICAgICAgICA8cmVjdCB4PSIxMyIgeT0iMjYiIHdpZHRoPSI0IiBoZWlnaHQ9IjQiLz4mI3hhOyAgICAgICAgPHJlY3QgeD0iMTMiIHk9IjE4IiB3aWR0aD0iNCIgaGVpZ2h0PSI0Ii8+JiN4YTsgICAgICAgIDxyZWN0IHg9IjEzIiB5PSIzNCIgd2lkdGg9IjQiIGhlaWdodD0iNCIvPiYjeGE7ICAgICAgICA8cmVjdCB4PSIxMyIgeT0iMTAiIHdpZHRoPSI0IiBoZWlnaHQ9IjQiLz4mI3hhOyAgICAgICAgPHJlY3QgeD0iMjEiIHk9IjI2IiB3aWR0aD0iMTQiIGhlaWdodD0iNCIvPiYjeGE7ICAgICAgICA8cmVjdCB4PSIyMSIgeT0iMTgiIHdpZHRoPSIxNCIgaGVpZ2h0PSI0Ii8+JiN4YTsgICAgICAgIDxyZWN0IHg9IjIxIiB5PSIzNCIgd2lkdGg9IjE0IiBoZWlnaHQ9IjQiLz4mI3hhOyAgICAgICAgPHJlY3QgeD0iMjEiIHk9IjEwIiB3aWR0aD0iMTQiIGhlaWdodD0iNCIvPiYjeGE7ICAgIDwvZz4mI3hhOzwvc3ZnPg==" parent="G85GCYi_cauBch0uA3sk-117" vertex="1">
          <mxGeometry x="598" y="222" width="48" height="48" as="geometry" />
        </mxCell>
        <mxCell id="G85GCYi_cauBch0uA3sk-18" value="e-mail" style="shape=image;verticalLabelPosition=bottom;verticalAlign=top;imageAspect=0;aspect=fixed;image=data:image/svg+xml,PHN2ZyB4bWxucz0iaHR0cDovL3d3dy53My5vcmcvMjAwMC9zdmciIHZlcnNpb249IjEiIHZpZXdCb3g9IjAgMCA0OCA0OCIgZW5hYmxlLWJhY2tncm91bmQ9Im5ldyAwIDAgNDggNDgiPiYjeGE7ICAgIDxwYXRoIGZpbGw9IiM3ODkwOUMiIGQ9Ik00MCw0MUg4Yy0yLjIsMC00LTEuOC00LTRsMC0yMC45YzAtMS4zLDAuNi0yLjUsMS43LTMuM0wyNCwwbDE4LjMsMTIuOGMxLjEsMC43LDEuNywyLDEuNywzLjNWMzcgQzQ0LDM5LjIsNDIuMiw0MSw0MCw0MXoiLz4mI3hhOyAgICA8cmVjdCB4PSIxMiIgeT0iMTEiIGZpbGw9IiNmZmYiIHdpZHRoPSIyNCIgaGVpZ2h0PSIyMiIvPiYjeGE7ICAgIDxwb2x5Z29uIGZpbGw9IiM5QzI3QjAiIHBvaW50cz0iMjQsMTMuNiAxOCwyMS40IDMwLDIxLjQiLz4mI3hhOyAgICA8cGF0aCBmaWxsPSIjQ0ZEOERDIiBkPSJNNDAsNDFIOGMtMi4yLDAtNC0xLjgtNC00bDAtMjBsMjAsMTNsMjAtMTN2MjBDNDQsMzkuMiw0Mi4yLDQxLDQwLDQxeiIvPiYjeGE7ICAgIDxwb2x5Z29uIGZpbGw9IiM5QzI3QjAiIHBvaW50cz0iMjQsMjggMjYsMjYuNyAyNiwyMCAyMiwyMCAyMiwyNi43Ii8+JiN4YTs8L3N2Zz4=" parent="G85GCYi_cauBch0uA3sk-117" vertex="1">
          <mxGeometry x="58" y="810" width="48" height="48" as="geometry" />
        </mxCell>
        <mxCell id="G85GCYi_cauBch0uA3sk-110" style="rounded=0;orthogonalLoop=1;jettySize=auto;html=1;fontSize=12;endArrow=none;endFill=0;strokeWidth=3;" parent="G85GCYi_cauBch0uA3sk-117" source="G85GCYi_cauBch0uA3sk-19" target="G85GCYi_cauBch0uA3sk-17" edge="1">
          <mxGeometry relative="1" as="geometry" />
        </mxCell>
        <mxCell id="G85GCYi_cauBch0uA3sk-111" style="rounded=0;orthogonalLoop=1;jettySize=auto;html=1;fontSize=12;endArrow=none;endFill=0;strokeWidth=3;" parent="G85GCYi_cauBch0uA3sk-117" source="G85GCYi_cauBch0uA3sk-19" target="G85GCYi_cauBch0uA3sk-13" edge="1">
          <mxGeometry relative="1" as="geometry" />
        </mxCell>
        <mxCell id="G85GCYi_cauBch0uA3sk-114" style="rounded=0;orthogonalLoop=1;jettySize=auto;html=1;entryX=0;entryY=0.5;entryDx=0;entryDy=0;fontSize=12;endArrow=none;endFill=0;strokeWidth=3;" parent="G85GCYi_cauBch0uA3sk-117" source="G85GCYi_cauBch0uA3sk-19" target="8--HhbSZYtI3ddgJnD71-13" edge="1">
          <mxGeometry relative="1" as="geometry" />
        </mxCell>
        <mxCell id="G85GCYi_cauBch0uA3sk-19" value="" style="shape=image;verticalLabelPosition=bottom;verticalAlign=top;imageAspect=0;aspect=fixed;image=data:image/svg+xml,PHN2ZyB4bWxucz0iaHR0cDovL3d3dy53My5vcmcvMjAwMC9zdmciIHZlcnNpb249IjEiIHZpZXdCb3g9IjAgMCA0OCA0OCIgZW5hYmxlLWJhY2tncm91bmQ9Im5ldyAwIDAgNDggNDgiPiYjeGE7ICAgIDxyZWN0IHg9IjE3IiB5PSIyOSIgZmlsbD0iIzAzOUJFNSIgd2lkdGg9IjE0IiBoZWlnaHQ9IjIiLz4mI3hhOyAgICA8cmVjdCB4PSIxMyIgeT0iMzMiIGZpbGw9IiMwMzlCRTUiIHdpZHRoPSIyMiIgaGVpZ2h0PSIyIi8+JiN4YTsgICAgPHJlY3QgeD0iOSIgeT0iMzciIGZpbGw9IiMwMzlCRTUiIHdpZHRoPSIzMCIgaGVpZ2h0PSIyIi8+JiN4YTsgICAgPHJlY3QgeD0iNSIgeT0iNDEiIGZpbGw9IiMwMzlCRTUiIHdpZHRoPSIzOCIgaGVpZ2h0PSIyIi8+JiN4YTsgICAgPHBhdGggZmlsbD0iIzgxRDRGQSIgZD0iTTM1LDEzYy0wLjQsMC0wLjgsMC0xLjIsMC4xQzMyLjksOC41LDI4LjksNSwyNCw1Yy00LjEsMC03LjYsMi41LTkuMiw2Yy0wLjMsMC0wLjUsMC0wLjgsMCBjLTQuNCwwLTgsMy42LTgsOHMzLjYsOCw4LDhjMi40LDAsMTguNSwwLDIxLDBjMy45LDAsNy0zLjEsNy03QzQyLDE2LjEsMzguOSwxMywzNSwxM3oiLz4mI3hhOyAgICA8cGF0aCBmaWxsPSIjMDM5QkU1IiBkPSJNMjgsMjFjMC0yLjItMS44LTQtNC00cy00LDEuOC00LDRjMCwwLjUsMCw2LDAsNmg4QzI4LDI3LDI4LDIxLjUsMjgsMjF6Ii8+JiN4YTs8L3N2Zz4=" parent="G85GCYi_cauBch0uA3sk-117" vertex="1">
          <mxGeometry x="572" y="318" width="160" height="160" as="geometry" />
        </mxCell>
        <mxCell id="G85GCYi_cauBch0uA3sk-21" value="" style="shape=image;verticalLabelPosition=bottom;verticalAlign=top;imageAspect=0;aspect=fixed;image=data:image/svg+xml,PHN2ZyB4bWxucz0iaHR0cDovL3d3dy53My5vcmcvMjAwMC9zdmciIHZlcnNpb249IjEiIHZpZXdCb3g9IjAgMCA0OCA0OCIgZW5hYmxlLWJhY2tncm91bmQ9Im5ldyAwIDAgNDggNDgiPiYjeGE7ICAgIDxwb2x5Z29uIGZpbGw9IiNDNUNBRTkiIHBvaW50cz0iNDIsNDIgNiw0MiA2LDkgMjQsMiA0Miw5Ii8+JiN4YTsgICAgPHJlY3QgeD0iNiIgeT0iNDIiIGZpbGw9IiM5RkE4REEiIHdpZHRoPSIzNiIgaGVpZ2h0PSIyIi8+JiN4YTsgICAgPHJlY3QgeD0iMjAiIHk9IjM1IiBmaWxsPSIjQkYzNjBDIiB3aWR0aD0iOCIgaGVpZ2h0PSI5Ii8+JiN4YTsgICAgPGcgZmlsbD0iIzE1NjVDMCI+JiN4YTsgICAgICAgIDxyZWN0IHg9IjMxIiB5PSIyNyIgd2lkdGg9IjYiIGhlaWdodD0iNSIvPiYjeGE7ICAgICAgICA8cmVjdCB4PSIyMSIgeT0iMjciIHdpZHRoPSI2IiBoZWlnaHQ9IjUiLz4mI3hhOyAgICAgICAgPHJlY3QgeD0iMTEiIHk9IjI3IiB3aWR0aD0iNiIgaGVpZ2h0PSI1Ii8+JiN4YTsgICAgICAgIDxyZWN0IHg9IjMxIiB5PSIzNSIgd2lkdGg9IjYiIGhlaWdodD0iNSIvPiYjeGE7ICAgICAgICA8cmVjdCB4PSIxMSIgeT0iMzUiIHdpZHRoPSI2IiBoZWlnaHQ9IjUiLz4mI3hhOyAgICAgICAgPHJlY3QgeD0iMzEiIHk9IjE5IiB3aWR0aD0iNiIgaGVpZ2h0PSI1Ii8+JiN4YTsgICAgICAgIDxyZWN0IHg9IjIxIiB5PSIxOSIgd2lkdGg9IjYiIGhlaWdodD0iNSIvPiYjeGE7ICAgICAgICA8cmVjdCB4PSIxMSIgeT0iMTkiIHdpZHRoPSI2IiBoZWlnaHQ9IjUiLz4mI3hhOyAgICAgICAgPHJlY3QgeD0iMzEiIHk9IjExIiB3aWR0aD0iNiIgaGVpZ2h0PSI1Ii8+JiN4YTsgICAgICAgIDxyZWN0IHg9IjIxIiB5PSIxMSIgd2lkdGg9IjYiIGhlaWdodD0iNSIvPiYjeGE7ICAgICAgICA8cmVjdCB4PSIxMSIgeT0iMTEiIHdpZHRoPSI2IiBoZWlnaHQ9IjUiLz4mI3hhOyAgICA8L2c+JiN4YTs8L3N2Zz4=" parent="G85GCYi_cauBch0uA3sk-117" vertex="1">
          <mxGeometry y="330" width="108" height="108" as="geometry" />
        </mxCell>
        <mxCell id="8--HhbSZYtI3ddgJnD71-24" style="edgeStyle=none;rounded=0;orthogonalLoop=1;jettySize=auto;html=1;sourcePerimeterSpacing=5;endArrow=none;endFill=0;targetPerimeterSpacing=5;" parent="G85GCYi_cauBch0uA3sk-117" source="G85GCYi_cauBch0uA3sk-21" target="8--HhbSZYtI3ddgJnD71-12" edge="1">
          <mxGeometry relative="1" as="geometry">
            <mxPoint x="121" y="384" as="sourcePoint" />
          </mxGeometry>
        </mxCell>
        <mxCell id="G85GCYi_cauBch0uA3sk-23" value="File Upload" style="shape=image;html=1;verticalAlign=top;verticalLabelPosition=bottom;labelBackgroundColor=#ffffff;imageAspect=0;aspect=fixed;image=https://cdn1.iconfinder.com/data/icons/unicons-line-vol-3/24/file-upload-128.png" parent="G85GCYi_cauBch0uA3sk-117" vertex="1">
          <mxGeometry x="808" y="649" width="70" height="70" as="geometry" />
        </mxCell>
        <mxCell id="G85GCYi_cauBch0uA3sk-24" value="" style="verticalLabelPosition=bottom;verticalAlign=top;html=1;shadow=0;dashed=0;strokeWidth=1;shape=mxgraph.ios.iBgMap;strokeColor=#18211b;strokeColor2=#008cff;fillColor2=#96D1FF;" parent="G85GCYi_cauBch0uA3sk-117" vertex="1">
          <mxGeometry x="139.3" y="810" width="150" height="145" as="geometry" />
        </mxCell>
        <mxCell id="G85GCYi_cauBch0uA3sk-25" value="" style="verticalLabelPosition=bottom;shadow=0;dashed=0;align=center;html=1;verticalAlign=top;strokeWidth=1;shape=mxgraph.mockup.misc.map;" parent="G85GCYi_cauBch0uA3sk-117" vertex="1">
          <mxGeometry x="299.3" y="810" width="150" height="145" as="geometry" />
        </mxCell>
        <mxCell id="G85GCYi_cauBch0uA3sk-27" style="edgeStyle=none;rounded=0;orthogonalLoop=1;jettySize=auto;html=1;exitX=0.75;exitY=0;exitDx=0;exitDy=0;" parent="G85GCYi_cauBch0uA3sk-117" edge="1">
          <mxGeometry relative="1" as="geometry">
            <mxPoint x="813.9999999999995" y="660" as="sourcePoint" />
            <mxPoint x="813.9999999999995" y="660" as="targetPoint" />
          </mxGeometry>
        </mxCell>
        <mxCell id="G85GCYi_cauBch0uA3sk-101" style="edgeStyle=none;rounded=0;orthogonalLoop=1;jettySize=auto;html=1;entryX=0.5;entryY=0;entryDx=0;entryDy=0;fontSize=12;strokeWidth=2;fillColor=#6a00ff;strokeColor=#3700CC;" parent="G85GCYi_cauBch0uA3sk-117" source="G85GCYi_cauBch0uA3sk-30" target="8--HhbSZYtI3ddgJnD71-9" edge="1">
          <mxGeometry relative="1" as="geometry" />
        </mxCell>
        <mxCell id="G85GCYi_cauBch0uA3sk-102" style="edgeStyle=none;rounded=0;orthogonalLoop=1;jettySize=auto;html=1;entryX=0;entryY=0;entryDx=0;entryDy=0;fontSize=12;strokeWidth=2;fillColor=#6a00ff;strokeColor=#3700CC;" parent="G85GCYi_cauBch0uA3sk-117" source="G85GCYi_cauBch0uA3sk-30" target="G85GCYi_cauBch0uA3sk-23" edge="1">
          <mxGeometry relative="1" as="geometry" />
        </mxCell>
        <mxCell id="G85GCYi_cauBch0uA3sk-103" style="edgeStyle=none;rounded=0;orthogonalLoop=1;jettySize=auto;html=1;entryX=0.25;entryY=0;entryDx=0;entryDy=0;fontSize=12;strokeWidth=2;fillColor=#6a00ff;strokeColor=#3700CC;" parent="G85GCYi_cauBch0uA3sk-117" source="G85GCYi_cauBch0uA3sk-30" target="8--HhbSZYtI3ddgJnD71-14" edge="1">
          <mxGeometry relative="1" as="geometry" />
        </mxCell>
        <mxCell id="o28knp06pdgvfArCMI09-1" value="" style="edgeStyle=orthogonalEdgeStyle;rounded=0;orthogonalLoop=1;jettySize=auto;html=1;" parent="G85GCYi_cauBch0uA3sk-117" source="G85GCYi_cauBch0uA3sk-30" target="8--HhbSZYtI3ddgJnD71-9" edge="1">
          <mxGeometry relative="1" as="geometry" />
        </mxCell>
        <mxCell id="G85GCYi_cauBch0uA3sk-30" value="Application" style="sketch=0;pointerEvents=1;shadow=0;dashed=0;html=1;strokeColor=none;fillColor=#505050;labelPosition=center;verticalLabelPosition=bottom;verticalAlign=top;outlineConnect=0;align=center;shape=mxgraph.office.concepts.application_web;" parent="G85GCYi_cauBch0uA3sk-117" vertex="1">
          <mxGeometry x="391.72" y="464" width="114.29" height="100" as="geometry" />
        </mxCell>
        <mxCell id="G85GCYi_cauBch0uA3sk-45" style="edgeStyle=none;rounded=0;orthogonalLoop=1;jettySize=auto;html=1;strokeWidth=2;fillColor=#6a00ff;strokeColor=#3700CC;" parent="G85GCYi_cauBch0uA3sk-117" source="8--HhbSZYtI3ddgJnD71-2" target="G85GCYi_cauBch0uA3sk-30" edge="1">
          <mxGeometry relative="1" as="geometry" />
        </mxCell>
        <mxCell id="8--HhbSZYtI3ddgJnD71-31" style="edgeStyle=none;rounded=0;orthogonalLoop=1;jettySize=auto;html=1;sourcePerimeterSpacing=5;endArrow=none;endFill=0;targetPerimeterSpacing=5;exitX=0;exitY=0.5;exitDx=0;exitDy=0;" parent="G85GCYi_cauBch0uA3sk-117" source="G85GCYi_cauBch0uA3sk-19" target="G85GCYi_cauBch0uA3sk-30" edge="1">
          <mxGeometry relative="1" as="geometry">
            <mxPoint x="631.6296296296296" y="435" as="sourcePoint" />
            <mxPoint x="602.7407407407404" y="513" as="targetPoint" />
          </mxGeometry>
        </mxCell>
        <mxCell id="G85GCYi_cauBch0uA3sk-32" value="" style="shape=image;verticalLabelPosition=bottom;verticalAlign=top;imageAspect=0;aspect=fixed;image=data:image/svg+xml,PHN2ZyB4bWxucz0iaHR0cDovL3d3dy53My5vcmcvMjAwMC9zdmciIHZlcnNpb249IjEiIHZpZXdCb3g9IjAgMCA0OCA0OCIgZW5hYmxlLWJhY2tncm91bmQ9Im5ldyAwIDAgNDggNDgiPiYjeGE7ICAgIDxyZWN0IHg9IjEyIiB5PSI0NCIgZmlsbD0iIzI2MzIzOCIgd2lkdGg9IjQiIGhlaWdodD0iMiIvPiYjeGE7ICAgIDxyZWN0IHg9IjMyIiB5PSI0NCIgZmlsbD0iIzI2MzIzOCIgd2lkdGg9IjQiIGhlaWdodD0iMiIvPiYjeGE7ICAgIDxwYXRoIGZpbGw9IiM2MDdEOEIiIGQ9Ik04LDQxVjdjMC0yLjIsMS44LTQsNC00aDI0YzIuMiwwLDQsMS44LDQsNHYzNGMwLDIuMi0xLjgsNC00LDRIMTJDOS44LDQ1LDgsNDMuMiw4LDQxeiIvPiYjeGE7ICAgIDxwYXRoIGZpbGw9IiNCMEJFQzUiIGQ9Ik0xMiwxN1Y4YzAtMC42LDAuNC0xLDEtMWgyMmMwLjYsMCwxLDAuNCwxLDF2OUgxMnoiLz4mI3hhOyAgICA8cmVjdCB4PSIxMiIgeT0iMTkiIGZpbGw9IiNCMEJFQzUiIHdpZHRoPSIyNCIgaGVpZ2h0PSIxMCIvPiYjeGE7ICAgIDxwYXRoIGZpbGw9IiNCMEJFQzUiIGQ9Ik0xMiw0MHYtOWgyNHY5YzAsMC42LTAuNCwxLTEsMUgxM0MxMi40LDQxLDEyLDQwLjYsMTIsNDB6Ii8+JiN4YTsgICAgPHJlY3QgeD0iMjAiIHk9IjExIiBmaWxsPSIjNTQ2RTdBIiB3aWR0aD0iOCIgaGVpZ2h0PSIyIi8+JiN4YTsgICAgPHJlY3QgeD0iMjAiIHk9IjIzIiBmaWxsPSIjNTQ2RTdBIiB3aWR0aD0iOCIgaGVpZ2h0PSIyIi8+JiN4YTsgICAgPHJlY3QgeD0iMjAiIHk9IjM1IiBmaWxsPSIjNTQ2RTdBIiB3aWR0aD0iOCIgaGVpZ2h0PSIyIi8+JiN4YTs8L3N2Zz4=;labelBackgroundColor=#ffffff;" parent="G85GCYi_cauBch0uA3sk-117" vertex="1">
          <mxGeometry x="798" y="390" width="48" height="48" as="geometry" />
        </mxCell>
        <mxCell id="G85GCYi_cauBch0uA3sk-115" style="rounded=0;orthogonalLoop=1;jettySize=auto;html=1;entryX=0;entryY=0.5;entryDx=0;entryDy=0;fontSize=12;endArrow=none;endFill=0;strokeWidth=3;" parent="G85GCYi_cauBch0uA3sk-117" source="G85GCYi_cauBch0uA3sk-19" target="G85GCYi_cauBch0uA3sk-32" edge="1">
          <mxGeometry relative="1" as="geometry" />
        </mxCell>
        <mxCell id="G85GCYi_cauBch0uA3sk-33" value="" style="shape=image;html=1;verticalAlign=top;verticalLabelPosition=bottom;labelBackgroundColor=#ffffff;imageAspect=0;aspect=fixed;image=https://cdn4.iconfinder.com/data/icons/success-filloutline/64/chart-analysis-analytics-data_analytics-pie-128.png" parent="G85GCYi_cauBch0uA3sk-117" vertex="1">
          <mxGeometry x="538" y="887" width="80" height="80" as="geometry" />
        </mxCell>
        <mxCell id="G85GCYi_cauBch0uA3sk-36" style="edgeStyle=none;rounded=0;orthogonalLoop=1;jettySize=auto;html=1;exitX=0.5;exitY=1;exitDx=0;exitDy=0;" parent="G85GCYi_cauBch0uA3sk-117" source="G85GCYi_cauBch0uA3sk-14" target="G85GCYi_cauBch0uA3sk-33" edge="1">
          <mxGeometry relative="1" as="geometry" />
        </mxCell>
        <mxCell id="G85GCYi_cauBch0uA3sk-41" style="edgeStyle=none;rounded=0;orthogonalLoop=1;jettySize=auto;html=1;entryX=0.503;entryY=-0.017;entryDx=0;entryDy=0;entryPerimeter=0;" parent="G85GCYi_cauBch0uA3sk-117" source="G85GCYi_cauBch0uA3sk-37" target="G85GCYi_cauBch0uA3sk-24" edge="1">
          <mxGeometry relative="1" as="geometry" />
        </mxCell>
        <mxCell id="G85GCYi_cauBch0uA3sk-42" style="edgeStyle=none;rounded=0;orthogonalLoop=1;jettySize=auto;html=1;" parent="G85GCYi_cauBch0uA3sk-117" source="G85GCYi_cauBch0uA3sk-37" target="G85GCYi_cauBch0uA3sk-25" edge="1">
          <mxGeometry relative="1" as="geometry" />
        </mxCell>
        <mxCell id="G85GCYi_cauBch0uA3sk-37" value="Map" style="verticalLabelPosition=bottom;sketch=0;aspect=fixed;html=1;verticalAlign=top;strokeColor=none;align=center;outlineConnect=0;shape=mxgraph.citrix.globe;" parent="G85GCYi_cauBch0uA3sk-117" vertex="1">
          <mxGeometry x="250.6" y="660" width="87.4" height="83.5" as="geometry" />
        </mxCell>
        <mxCell id="G85GCYi_cauBch0uA3sk-38" style="edgeStyle=none;rounded=0;orthogonalLoop=1;jettySize=auto;html=1;strokeWidth=2;fillColor=#6a00ff;strokeColor=#3700CC;" parent="G85GCYi_cauBch0uA3sk-117" source="G85GCYi_cauBch0uA3sk-30" target="G85GCYi_cauBch0uA3sk-37" edge="1">
          <mxGeometry relative="1" as="geometry" />
        </mxCell>
        <mxCell id="G85GCYi_cauBch0uA3sk-50" style="edgeStyle=none;rounded=0;orthogonalLoop=1;jettySize=auto;html=1;exitX=0.25;exitY=1;exitDx=0;exitDy=0;entryX=0.5;entryY=0;entryDx=0;entryDy=0;" parent="G85GCYi_cauBch0uA3sk-117" source="G85GCYi_cauBch0uA3sk-39" target="G85GCYi_cauBch0uA3sk-18" edge="1">
          <mxGeometry relative="1" as="geometry" />
        </mxCell>
        <mxCell id="G85GCYi_cauBch0uA3sk-39" value="Notification" style="shape=image;html=1;verticalAlign=top;verticalLabelPosition=bottom;labelBackgroundColor=#ffffff;imageAspect=0;aspect=fixed;image=https://cdn1.iconfinder.com/data/icons/ui-essential-17/32/UI_Essential_Outline_1_essential-app-ui-bell-notification-alert-128.png" parent="G85GCYi_cauBch0uA3sk-117" vertex="1">
          <mxGeometry x="98" y="656.25" width="91" height="91" as="geometry" />
        </mxCell>
        <mxCell id="G85GCYi_cauBch0uA3sk-44" style="edgeStyle=none;rounded=0;orthogonalLoop=1;jettySize=auto;html=1;entryX=0.927;entryY=-0.008;entryDx=0;entryDy=0;entryPerimeter=0;strokeWidth=2;fillColor=#6a00ff;strokeColor=#3700CC;" parent="G85GCYi_cauBch0uA3sk-117" source="G85GCYi_cauBch0uA3sk-30" target="G85GCYi_cauBch0uA3sk-39" edge="1">
          <mxGeometry relative="1" as="geometry" />
        </mxCell>
        <mxCell id="G85GCYi_cauBch0uA3sk-48" value="" style="html=1;verticalLabelPosition=bottom;align=center;labelBackgroundColor=#ffffff;verticalAlign=top;strokeWidth=2;strokeColor=#0080F0;shadow=0;dashed=0;shape=mxgraph.ios7.icons.preferences;pointerEvents=1" parent="G85GCYi_cauBch0uA3sk-117" vertex="1">
          <mxGeometry x="732" y="234" width="30" height="24" as="geometry" />
        </mxCell>
        <mxCell id="G85GCYi_cauBch0uA3sk-112" style="rounded=0;orthogonalLoop=1;jettySize=auto;html=1;entryX=0.3;entryY=1.042;entryDx=0;entryDy=0;entryPerimeter=0;fontSize=12;endArrow=none;endFill=0;strokeWidth=3;" parent="G85GCYi_cauBch0uA3sk-117" source="G85GCYi_cauBch0uA3sk-19" target="G85GCYi_cauBch0uA3sk-48" edge="1">
          <mxGeometry relative="1" as="geometry" />
        </mxCell>
        <mxCell id="G85GCYi_cauBch0uA3sk-49" value="" style="html=1;verticalLabelPosition=bottom;align=center;labelBackgroundColor=#ffffff;verticalAlign=top;strokeWidth=2;strokeColor=#0080F0;shadow=0;dashed=0;shape=mxgraph.ios7.icons.tools;pointerEvents=1;fontFamily=Helvetica;fontSize=12;fontColor=default;fillColor=default;" parent="G85GCYi_cauBch0uA3sk-117" vertex="1">
          <mxGeometry x="798" y="234" width="50" height="50" as="geometry" />
        </mxCell>
        <mxCell id="G85GCYi_cauBch0uA3sk-97" value="" style="group;labelBackgroundColor=#FFCCE6;" parent="G85GCYi_cauBch0uA3sk-117" vertex="1" connectable="0">
          <mxGeometry x="648" y="800" width="250" height="150" as="geometry" />
        </mxCell>
        <mxCell id="G85GCYi_cauBch0uA3sk-51" value="" style="strokeWidth=1;shadow=0;dashed=0;align=center;html=1;shape=mxgraph.mockup.graphics.rrect;rSize=0;strokeColor=#999999;fontSize=7;container=0;" parent="G85GCYi_cauBch0uA3sk-97" vertex="1">
          <mxGeometry width="250" height="150" as="geometry" />
        </mxCell>
        <mxCell id="G85GCYi_cauBch0uA3sk-52" value="#" style="strokeColor=inherit;fillColor=inherit;gradientColor=inherit;strokeWidth=1;shadow=0;dashed=0;align=center;html=1;shape=mxgraph.mockup.graphics.rrect;rSize=0;fontColor=#666666;fontSize=7;" parent="G85GCYi_cauBch0uA3sk-97" vertex="1">
          <mxGeometry width="8.333333333333334" height="19.999999999999993" as="geometry" />
        </mxCell>
        <mxCell id="G85GCYi_cauBch0uA3sk-53" value="Task" style="strokeColor=inherit;fillColor=inherit;gradientColor=inherit;strokeWidth=1;shadow=0;dashed=0;align=center;html=1;shape=mxgraph.mockup.graphics.rrect;rSize=0;fontColor=#666666;fontSize=7;" parent="G85GCYi_cauBch0uA3sk-97" vertex="1">
          <mxGeometry x="8.333333333333371" width="16.666666666666668" height="19.999999999999993" as="geometry" />
        </mxCell>
        <mxCell id="G85GCYi_cauBch0uA3sk-54" value="Start" style="strokeColor=inherit;fillColor=inherit;gradientColor=inherit;strokeWidth=1;shadow=0;dashed=0;align=center;html=1;shape=mxgraph.mockup.graphics.rrect;rSize=0;fontColor=#666666;fontSize=7;" parent="G85GCYi_cauBch0uA3sk-97" vertex="1">
          <mxGeometry x="25" width="54.166666666666664" height="19.999999999999993" as="geometry" />
        </mxCell>
        <mxCell id="G85GCYi_cauBch0uA3sk-55" value="Effort" style="strokeColor=inherit;fillColor=inherit;gradientColor=inherit;strokeWidth=1;shadow=0;dashed=0;align=center;html=1;shape=mxgraph.mockup.graphics.rrect;rSize=0;fontColor=#666666;fontSize=7;" parent="G85GCYi_cauBch0uA3sk-97" vertex="1">
          <mxGeometry x="79.16666666666663" width="20.833333333333332" height="19.999999999999993" as="geometry" />
        </mxCell>
        <mxCell id="G85GCYi_cauBch0uA3sk-56" value="20//10//2014" style="strokeColor=inherit;fillColor=inherit;gradientColor=inherit;strokeWidth=1;shadow=0;dashed=0;align=center;html=1;shape=mxgraph.mockup.graphics.rrect;rSize=0;fontColor=#666666;fontSize=7;" parent="G85GCYi_cauBch0uA3sk-97" vertex="1">
          <mxGeometry x="100" width="87.50000000000001" height="9.999999999999996" as="geometry" />
        </mxCell>
        <mxCell id="G85GCYi_cauBch0uA3sk-57" value="27//10//2014" style="strokeColor=inherit;fillColor=inherit;gradientColor=inherit;strokeWidth=1;shadow=0;dashed=0;align=center;html=1;shape=mxgraph.mockup.graphics.rrect;rSize=0;fontColor=#666666;fontSize=7;" parent="G85GCYi_cauBch0uA3sk-97" vertex="1">
          <mxGeometry x="187.5" width="62.50000000000001" height="9.999999999999996" as="geometry" />
        </mxCell>
        <mxCell id="G85GCYi_cauBch0uA3sk-58" value="M" style="strokeColor=inherit;fillColor=inherit;gradientColor=inherit;strokeWidth=1;shadow=0;dashed=0;align=center;html=1;shape=mxgraph.mockup.graphics.rrect;rSize=0;;fontColor=#666666;fontSize=7;" parent="G85GCYi_cauBch0uA3sk-97" vertex="1">
          <mxGeometry x="100" y="10" width="12.500000000000002" height="9.999999999999996" as="geometry" />
        </mxCell>
        <mxCell id="G85GCYi_cauBch0uA3sk-59" value="T" style="strokeColor=inherit;fillColor=inherit;gradientColor=inherit;strokeWidth=1;shadow=0;dashed=0;align=center;html=1;shape=mxgraph.mockup.graphics.rrect;rSize=0;fontColor=#666666;fontSize=7;" parent="G85GCYi_cauBch0uA3sk-97" vertex="1">
          <mxGeometry x="112.5" y="10" width="12.500000000000002" height="9.999999999999996" as="geometry" />
        </mxCell>
        <mxCell id="G85GCYi_cauBch0uA3sk-60" value="W" style="strokeColor=inherit;fillColor=inherit;gradientColor=inherit;strokeWidth=1;shadow=0;dashed=0;align=center;html=1;shape=mxgraph.mockup.graphics.rrect;rSize=0;fontColor=#666666;fontSize=7;" parent="G85GCYi_cauBch0uA3sk-97" vertex="1">
          <mxGeometry x="125" y="10" width="12.500000000000002" height="9.999999999999996" as="geometry" />
        </mxCell>
        <mxCell id="G85GCYi_cauBch0uA3sk-61" value="T" style="strokeColor=inherit;fillColor=inherit;gradientColor=inherit;strokeWidth=1;shadow=0;dashed=0;align=center;html=1;shape=mxgraph.mockup.graphics.rrect;rSize=0;fontColor=#666666;fontSize=7;" parent="G85GCYi_cauBch0uA3sk-97" vertex="1">
          <mxGeometry x="137.5" y="10" width="12.500000000000002" height="9.999999999999996" as="geometry" />
        </mxCell>
        <mxCell id="G85GCYi_cauBch0uA3sk-62" value="F" style="strokeColor=inherit;fillColor=inherit;gradientColor=inherit;strokeWidth=1;shadow=0;dashed=0;align=center;html=1;shape=mxgraph.mockup.graphics.rrect;rSize=0;fontColor=#666666;fontSize=7;" parent="G85GCYi_cauBch0uA3sk-97" vertex="1">
          <mxGeometry x="150" y="10" width="12.500000000000002" height="9.999999999999996" as="geometry" />
        </mxCell>
        <mxCell id="G85GCYi_cauBch0uA3sk-63" value="S" style="strokeColor=inherit;fillColor=inherit;gradientColor=inherit;strokeWidth=1;shadow=0;dashed=0;align=center;html=1;shape=mxgraph.mockup.graphics.rrect;rSize=0;fontColor=#666666;fontSize=7;" parent="G85GCYi_cauBch0uA3sk-97" vertex="1">
          <mxGeometry x="162.5" y="10" width="12.500000000000002" height="9.999999999999996" as="geometry" />
        </mxCell>
        <mxCell id="G85GCYi_cauBch0uA3sk-64" value="S" style="strokeColor=inherit;fillColor=inherit;gradientColor=inherit;strokeWidth=1;shadow=0;dashed=0;align=center;html=1;shape=mxgraph.mockup.graphics.rrect;rSize=0;fontColor=#666666;fontSize=7;" parent="G85GCYi_cauBch0uA3sk-97" vertex="1">
          <mxGeometry x="175" y="10" width="12.500000000000002" height="9.999999999999996" as="geometry" />
        </mxCell>
        <mxCell id="G85GCYi_cauBch0uA3sk-65" value="M" style="strokeColor=inherit;fillColor=inherit;gradientColor=inherit;strokeWidth=1;shadow=0;dashed=0;align=center;html=1;shape=mxgraph.mockup.graphics.rrect;rSize=0;fontColor=#666666;fontSize=7;" parent="G85GCYi_cauBch0uA3sk-97" vertex="1">
          <mxGeometry x="187.5" y="10" width="12.500000000000002" height="9.999999999999996" as="geometry" />
        </mxCell>
        <mxCell id="G85GCYi_cauBch0uA3sk-66" value="T" style="strokeColor=inherit;fillColor=inherit;gradientColor=inherit;strokeWidth=1;shadow=0;dashed=0;align=center;html=1;shape=mxgraph.mockup.graphics.rrect;rSize=0;fontColor=#666666;fontSize=7;" parent="G85GCYi_cauBch0uA3sk-97" vertex="1">
          <mxGeometry x="200" y="10" width="12.500000000000002" height="9.999999999999996" as="geometry" />
        </mxCell>
        <mxCell id="G85GCYi_cauBch0uA3sk-67" value="W" style="strokeColor=inherit;fillColor=inherit;gradientColor=inherit;strokeWidth=1;shadow=0;dashed=0;align=center;html=1;shape=mxgraph.mockup.graphics.rrect;rSize=0;fontColor=#666666;fontSize=7;" parent="G85GCYi_cauBch0uA3sk-97" vertex="1">
          <mxGeometry x="212.5" y="10" width="12.500000000000002" height="9.999999999999996" as="geometry" />
        </mxCell>
        <mxCell id="G85GCYi_cauBch0uA3sk-68" value="T" style="strokeColor=inherit;fillColor=inherit;gradientColor=inherit;strokeWidth=1;shadow=0;dashed=0;align=center;html=1;shape=mxgraph.mockup.graphics.rrect;rSize=0;fontColor=#666666;fontSize=7;" parent="G85GCYi_cauBch0uA3sk-97" vertex="1">
          <mxGeometry x="225" y="10" width="12.500000000000002" height="9.999999999999996" as="geometry" />
        </mxCell>
        <mxCell id="G85GCYi_cauBch0uA3sk-69" value="F" style="strokeColor=inherit;fillColor=inherit;gradientColor=inherit;strokeWidth=1;shadow=0;dashed=0;align=center;html=1;shape=mxgraph.mockup.graphics.rrect;rSize=0;fontColor=#666666;fontSize=7;" parent="G85GCYi_cauBch0uA3sk-97" vertex="1">
          <mxGeometry x="237.5" y="10" width="12.500000000000002" height="9.999999999999996" as="geometry" />
        </mxCell>
        <mxCell id="G85GCYi_cauBch0uA3sk-70" value="" style="strokeColor=inherit;fillColor=inherit;gradientColor=inherit;strokeWidth=1;shadow=0;dashed=0;align=center;html=1;shape=mxgraph.mockup.graphics.rrect;rSize=0;fontColor=#666666;fontSize=7;" parent="G85GCYi_cauBch0uA3sk-97" vertex="1">
          <mxGeometry y="20" width="100.00000000000001" height="129.99999999999997" as="geometry" />
        </mxCell>
        <mxCell id="G85GCYi_cauBch0uA3sk-71" value="" style="strokeColor=inherit;fillColor=inherit;gradientColor=inherit;strokeWidth=1;shadow=0;dashed=0;align=center;html=1;shape=mxgraph.mockup.graphics.rrect;rSize=0;fontColor=#666666;fontSize=7;" parent="G85GCYi_cauBch0uA3sk-97" vertex="1">
          <mxGeometry x="100" y="20" width="25.000000000000004" height="129.99999999999997" as="geometry" />
        </mxCell>
        <mxCell id="G85GCYi_cauBch0uA3sk-72" value="" style="strokeColor=inherit;fillColor=inherit;gradientColor=inherit;strokeWidth=1;shadow=0;dashed=0;align=center;html=1;shape=mxgraph.mockup.graphics.rrect;rSize=0;fontColor=#666666;fontSize=7;" parent="G85GCYi_cauBch0uA3sk-97" vertex="1">
          <mxGeometry x="125" y="20" width="25.000000000000004" height="129.99999999999997" as="geometry" />
        </mxCell>
        <mxCell id="G85GCYi_cauBch0uA3sk-73" value="" style="strokeColor=inherit;fillColor=inherit;gradientColor=inherit;strokeWidth=1;shadow=0;dashed=0;align=center;html=1;shape=mxgraph.mockup.graphics.rrect;rSize=0;fontColor=#666666;fontSize=7;" parent="G85GCYi_cauBch0uA3sk-97" vertex="1">
          <mxGeometry x="150" y="20" width="25.000000000000004" height="129.99999999999997" as="geometry" />
        </mxCell>
        <mxCell id="G85GCYi_cauBch0uA3sk-74" value="" style="strokeColor=inherit;fillColor=inherit;gradientColor=inherit;strokeWidth=1;shadow=0;dashed=0;align=center;html=1;shape=mxgraph.mockup.graphics.rrect;rSize=0;fontColor=#666666;fontSize=7;" parent="G85GCYi_cauBch0uA3sk-97" vertex="1">
          <mxGeometry x="175" y="20" width="25.000000000000004" height="129.99999999999997" as="geometry" />
        </mxCell>
        <mxCell id="G85GCYi_cauBch0uA3sk-75" value="" style="strokeColor=inherit;fillColor=inherit;gradientColor=inherit;strokeWidth=1;shadow=0;dashed=0;align=center;html=1;shape=mxgraph.mockup.graphics.rrect;rSize=0;fontColor=#666666;fontSize=7;" parent="G85GCYi_cauBch0uA3sk-97" vertex="1">
          <mxGeometry x="200" y="20" width="25.000000000000004" height="129.99999999999997" as="geometry" />
        </mxCell>
        <mxCell id="G85GCYi_cauBch0uA3sk-76" value="" style="strokeColor=inherit;fillColor=inherit;gradientColor=inherit;strokeWidth=1;shadow=0;dashed=0;align=center;html=1;shape=mxgraph.mockup.graphics.rrect;rSize=0;fontColor=#666666;fontSize=7;" parent="G85GCYi_cauBch0uA3sk-97" vertex="1">
          <mxGeometry x="225" y="20" width="25.000000000000004" height="129.99999999999997" as="geometry" />
        </mxCell>
        <mxCell id="G85GCYi_cauBch0uA3sk-77" value="1" style="strokeWidth=1;shadow=0;dashed=0;align=center;html=1;shape=mxgraph.mockup.graphics.anchor;fontColor=#666666;fontSize=7;" parent="G85GCYi_cauBch0uA3sk-97" vertex="1">
          <mxGeometry y="20" width="8.333333333333334" height="9.999999999999996" as="geometry" />
        </mxCell>
        <mxCell id="G85GCYi_cauBch0uA3sk-78" value="Task 1" style="strokeWidth=1;shadow=0;dashed=0;align=center;html=1;shape=mxgraph.mockup.graphics.anchor;fontColor=#666666;fontSize=7;" parent="G85GCYi_cauBch0uA3sk-97" vertex="1">
          <mxGeometry x="8.333333333333371" y="20" width="16.666666666666668" height="9.999999999999996" as="geometry" />
        </mxCell>
        <mxCell id="G85GCYi_cauBch0uA3sk-79" value="20//10//2014 8:00 AM" style="strokeWidth=1;shadow=0;dashed=0;align=center;html=1;shape=mxgraph.mockup.graphics.anchor;fontColor=#666666;fontSize=7;" parent="G85GCYi_cauBch0uA3sk-97" vertex="1">
          <mxGeometry x="25" y="20" width="54.166666666666664" height="9.999999999999996" as="geometry" />
        </mxCell>
        <mxCell id="G85GCYi_cauBch0uA3sk-80" value="40h" style="strokeWidth=1;shadow=0;dashed=0;align=center;html=1;shape=mxgraph.mockup.graphics.anchor;fontColor=#666666;fontSize=7;" parent="G85GCYi_cauBch0uA3sk-97" vertex="1">
          <mxGeometry x="79.16666666666663" y="20" width="20.833333333333332" height="9.999999999999996" as="geometry" />
        </mxCell>
        <mxCell id="G85GCYi_cauBch0uA3sk-81" value="2" style="strokeWidth=1;shadow=0;dashed=0;align=center;html=1;shape=mxgraph.mockup.graphics.anchor;fontColor=#666666;fontSize=7;" parent="G85GCYi_cauBch0uA3sk-97" vertex="1">
          <mxGeometry y="30" width="8.333333333333334" height="9.999999999999996" as="geometry" />
        </mxCell>
        <mxCell id="G85GCYi_cauBch0uA3sk-82" value="Task 2" style="strokeWidth=1;shadow=0;dashed=0;align=center;html=1;shape=mxgraph.mockup.graphics.anchor;fontColor=#666666;fontSize=7;" parent="G85GCYi_cauBch0uA3sk-97" vertex="1">
          <mxGeometry x="8.333333333333371" y="30" width="16.666666666666668" height="9.999999999999996" as="geometry" />
        </mxCell>
        <mxCell id="G85GCYi_cauBch0uA3sk-83" value="20//10//2014 8:00 AM" style="strokeWidth=1;shadow=0;dashed=0;align=center;html=1;shape=mxgraph.mockup.graphics.anchor;fontColor=#666666;fontSize=7;" parent="G85GCYi_cauBch0uA3sk-97" vertex="1">
          <mxGeometry x="25" y="30" width="54.166666666666664" height="9.999999999999996" as="geometry" />
        </mxCell>
        <mxCell id="G85GCYi_cauBch0uA3sk-84" value="40h" style="strokeWidth=1;shadow=0;dashed=0;align=center;html=1;shape=mxgraph.mockup.graphics.anchor;fontColor=#666666;fontSize=7;" parent="G85GCYi_cauBch0uA3sk-97" vertex="1">
          <mxGeometry x="79.16666666666663" y="30" width="20.833333333333332" height="9.999999999999996" as="geometry" />
        </mxCell>
        <mxCell id="G85GCYi_cauBch0uA3sk-85" value="3" style="strokeWidth=1;shadow=0;dashed=0;align=center;html=1;shape=mxgraph.mockup.graphics.anchor;fontColor=#666666;fontSize=7;" parent="G85GCYi_cauBch0uA3sk-97" vertex="1">
          <mxGeometry y="40" width="8.333333333333334" height="9.999999999999996" as="geometry" />
        </mxCell>
        <mxCell id="G85GCYi_cauBch0uA3sk-86" value="Task 3" style="strokeWidth=1;shadow=0;dashed=0;align=center;html=1;shape=mxgraph.mockup.graphics.anchor;fontColor=#666666;fontSize=7;" parent="G85GCYi_cauBch0uA3sk-97" vertex="1">
          <mxGeometry x="8.333333333333371" y="40" width="16.666666666666668" height="9.999999999999996" as="geometry" />
        </mxCell>
        <mxCell id="G85GCYi_cauBch0uA3sk-87" value="20//10//2014 8:00 AM" style="strokeWidth=1;shadow=0;dashed=0;align=center;html=1;shape=mxgraph.mockup.graphics.anchor;fontColor=#666666;fontSize=7;" parent="G85GCYi_cauBch0uA3sk-97" vertex="1">
          <mxGeometry x="25" y="40" width="54.166666666666664" height="9.999999999999996" as="geometry" />
        </mxCell>
        <mxCell id="G85GCYi_cauBch0uA3sk-88" value="40h" style="strokeWidth=1;shadow=0;dashed=0;align=center;html=1;shape=mxgraph.mockup.graphics.anchor;fontColor=#666666;fontSize=7;" parent="G85GCYi_cauBch0uA3sk-97" vertex="1">
          <mxGeometry x="79.16666666666663" y="40" width="20.833333333333332" height="9.999999999999996" as="geometry" />
        </mxCell>
        <mxCell id="G85GCYi_cauBch0uA3sk-89" value="4" style="strokeWidth=1;shadow=0;dashed=0;align=center;html=1;shape=mxgraph.mockup.graphics.anchor;fontColor=#666666;fontSize=7;" parent="G85GCYi_cauBch0uA3sk-97" vertex="1">
          <mxGeometry y="50" width="8.333333333333334" height="9.999999999999996" as="geometry" />
        </mxCell>
        <mxCell id="G85GCYi_cauBch0uA3sk-90" value="Task 4" style="strokeWidth=1;shadow=0;dashed=0;align=center;html=1;shape=mxgraph.mockup.graphics.anchor;fontColor=#666666;fontSize=7;" parent="G85GCYi_cauBch0uA3sk-97" vertex="1">
          <mxGeometry x="8.333333333333371" y="50" width="16.666666666666668" height="9.999999999999996" as="geometry" />
        </mxCell>
        <mxCell id="G85GCYi_cauBch0uA3sk-91" value="20//10//2014 8:00 AM" style="strokeWidth=1;shadow=0;dashed=0;align=center;html=1;shape=mxgraph.mockup.graphics.anchor;fontColor=#666666;fontSize=7;" parent="G85GCYi_cauBch0uA3sk-97" vertex="1">
          <mxGeometry x="25" y="50" width="54.166666666666664" height="9.999999999999996" as="geometry" />
        </mxCell>
        <mxCell id="G85GCYi_cauBch0uA3sk-92" value="40h" style="strokeWidth=1;shadow=0;dashed=0;align=center;html=1;shape=mxgraph.mockup.graphics.anchor;fontColor=#666666;fontSize=7;" parent="G85GCYi_cauBch0uA3sk-97" vertex="1">
          <mxGeometry x="79.16666666666663" y="50" width="20.833333333333332" height="9.999999999999996" as="geometry" />
        </mxCell>
        <mxCell id="G85GCYi_cauBch0uA3sk-93" value="" style="strokeWidth=1;shadow=0;dashed=0;align=center;html=1;shape=mxgraph.mockup.graphics.rrect;rSize=0;strokeColor=none;fillColor=#aaddff;fontSize=7;" parent="G85GCYi_cauBch0uA3sk-97" vertex="1">
          <mxGeometry x="104.16666666666663" y="22.5" width="54.166666666666664" height="4.999999999999998" as="geometry" />
        </mxCell>
        <mxCell id="G85GCYi_cauBch0uA3sk-94" value="" style="strokeWidth=1;shadow=0;dashed=0;align=center;html=1;shape=mxgraph.mockup.graphics.rrect;rSize=0;strokeColor=none;fillColor=#aaddff;fontSize=7;" parent="G85GCYi_cauBch0uA3sk-97" vertex="1">
          <mxGeometry x="104.16666666666663" y="32.5" width="16.666666666666668" height="4.999999999999998" as="geometry" />
        </mxCell>
        <mxCell id="G85GCYi_cauBch0uA3sk-95" value="" style="strokeWidth=1;shadow=0;dashed=0;align=center;html=1;shape=mxgraph.mockup.graphics.rrect;rSize=0;strokeColor=none;fillColor=#aaddff;fontSize=7;" parent="G85GCYi_cauBch0uA3sk-97" vertex="1">
          <mxGeometry x="116.66666666666663" y="42.5" width="41.666666666666664" height="4.999999999999998" as="geometry" />
        </mxCell>
        <mxCell id="G85GCYi_cauBch0uA3sk-96" value="" style="strokeWidth=1;shadow=0;dashed=0;align=center;html=1;shape=mxgraph.mockup.graphics.rrect;rSize=0;strokeColor=none;fillColor=#aaddff;fontSize=7;" parent="G85GCYi_cauBch0uA3sk-97" vertex="1">
          <mxGeometry x="141.66666666666674" y="52.5" width="29.166666666666668" height="4.999999999999998" as="geometry" />
        </mxCell>
        <mxCell id="G85GCYi_cauBch0uA3sk-118" style="edgeStyle=none;rounded=0;orthogonalLoop=1;jettySize=auto;html=1;entryX=0.408;entryY=0.05;entryDx=0;entryDy=0;entryPerimeter=0;strokeWidth=2;fontSize=12;endArrow=none;endFill=0;" parent="G85GCYi_cauBch0uA3sk-117" source="G85GCYi_cauBch0uA3sk-99" target="G85GCYi_cauBch0uA3sk-55" edge="1">
          <mxGeometry relative="1" as="geometry" />
        </mxCell>
        <mxCell id="G85GCYi_cauBch0uA3sk-99" value="Progress " style="shape=image;verticalLabelPosition=bottom;verticalAlign=top;imageAspect=0;aspect=fixed;image=data:image/svg+xml,PHN2ZyB4bWxucz0iaHR0cDovL3d3dy53My5vcmcvMjAwMC9zdmciIHZlcnNpb249IjEiIHZpZXdCb3g9IjAgMCA0OCA0OCIgZW5hYmxlLWJhY2tncm91bmQ9Im5ldyAwIDAgNDggNDgiPiYjeGE7ICAgIDxnIGZpbGw9IiM0Q0FGNTAiPiYjeGE7ICAgICAgICA8cmVjdCB4PSI0MCIgeT0iMjEiIHdpZHRoPSI0IiBoZWlnaHQ9IjIzIi8+JiN4YTsgICAgICAgIDxyZWN0IHg9IjM0IiB5PSIyOCIgd2lkdGg9IjQiIGhlaWdodD0iMTYiLz4mI3hhOyAgICAgICAgPHJlY3QgeD0iMjgiIHk9IjIzIiB3aWR0aD0iNCIgaGVpZ2h0PSIyMSIvPiYjeGE7ICAgICAgICA8cmVjdCB4PSIyMiIgeT0iMjkiIHdpZHRoPSI0IiBoZWlnaHQ9IjE1Ii8+JiN4YTsgICAgICAgIDxyZWN0IHg9IjE2IiB5PSIzMiIgd2lkdGg9IjQiIGhlaWdodD0iMTIiLz4mI3hhOyAgICAgICAgPHJlY3QgeD0iMTAiIHk9IjMwIiB3aWR0aD0iNCIgaGVpZ2h0PSIxNCIvPiYjeGE7ICAgICAgICA8cmVjdCB4PSI0IiB5PSIzNCIgd2lkdGg9IjQiIGhlaWdodD0iMTAiLz4mI3hhOyAgICA8L2c+JiN4YTsgICAgPGcgZmlsbD0iIzM4OEUzQyI+JiN4YTsgICAgICAgIDxwb2x5Z29uIHBvaW50cz0iNDAuMSw5LjEgMzQsMTUuMiAzMCwxMS4yIDIwLDIxLjIgMTUsMTYuMiA0LjYsMjYuNiA3LjQsMjkuNCAxNSwyMS44IDIwLDI2LjggMzAsMTYuOCAzNCwyMC44IDQyLjksMTEuOSIvPiYjeGE7ICAgICAgICA8cG9seWdvbiBwb2ludHM9IjQ0LDggMzUsOCA0NCwxNyIvPiYjeGE7ICAgIDwvZz4mI3hhOzwvc3ZnPg==;labelBackgroundColor=none;fontSize=12;" parent="G85GCYi_cauBch0uA3sk-117" vertex="1">
          <mxGeometry x="673" y="671" width="48" height="48" as="geometry" />
        </mxCell>
        <mxCell id="G85GCYi_cauBch0uA3sk-116" style="rounded=0;orthogonalLoop=1;jettySize=auto;html=1;entryX=0;entryY=0.52;entryDx=0;entryDy=0;entryPerimeter=0;fontSize=12;endArrow=none;endFill=0;strokeWidth=3;" parent="G85GCYi_cauBch0uA3sk-117" source="G85GCYi_cauBch0uA3sk-19" target="G85GCYi_cauBch0uA3sk-49" edge="1">
          <mxGeometry relative="1" as="geometry" />
        </mxCell>
        <mxCell id="G85GCYi_cauBch0uA3sk-104" style="edgeStyle=none;rounded=0;orthogonalLoop=1;jettySize=auto;html=1;entryX=0.5;entryY=0;entryDx=0;entryDy=0;fontSize=12;shape=link;" parent="G85GCYi_cauBch0uA3sk-117" source="G85GCYi_cauBch0uA3sk-31" target="8--HhbSZYtI3ddgJnD71-12" edge="1">
          <mxGeometry relative="1" as="geometry" />
        </mxCell>
        <mxCell id="G85GCYi_cauBch0uA3sk-100" style="edgeStyle=none;rounded=0;orthogonalLoop=1;jettySize=auto;html=1;entryX=0.5;entryY=0;entryDx=0;entryDy=0;fontSize=12;strokeWidth=2;fillColor=#6a00ff;strokeColor=#3700CC;" parent="G85GCYi_cauBch0uA3sk-117" source="G85GCYi_cauBch0uA3sk-30" target="G85GCYi_cauBch0uA3sk-99" edge="1">
          <mxGeometry relative="1" as="geometry" />
        </mxCell>
        <mxCell id="G85GCYi_cauBch0uA3sk-105" style="edgeStyle=none;shape=link;rounded=0;orthogonalLoop=1;jettySize=auto;html=1;fontSize=12;" parent="G85GCYi_cauBch0uA3sk-117" source="G85GCYi_cauBch0uA3sk-20" target="8--HhbSZYtI3ddgJnD71-12" edge="1">
          <mxGeometry relative="1" as="geometry" />
        </mxCell>
      </root>
    </mxGraphModel>
  </diagram>
  <diagram name="Version2" id="Eo0MkPzhR2DDWA9yz9js">
    <mxGraphModel dx="2842" dy="1723" grid="1" gridSize="10" guides="1" tooltips="1" connect="1" arrows="1" fold="1" page="1" pageScale="1" pageWidth="1169" pageHeight="827" math="0" shadow="0">
      <root>
        <mxCell id="D8BeeDaUjREZgvLblX8f-0" />
        <mxCell id="D8BeeDaUjREZgvLblX8f-1" parent="D8BeeDaUjREZgvLblX8f-0" />
        <mxCell id="D8BeeDaUjREZgvLblX8f-2" value="" style="group" vertex="1" connectable="0" parent="D8BeeDaUjREZgvLblX8f-1">
          <mxGeometry x="-18" y="-140" width="898" height="967" as="geometry" />
        </mxCell>
        <mxCell id="D8BeeDaUjREZgvLblX8f-3" style="edgeStyle=none;rounded=0;orthogonalLoop=1;jettySize=auto;html=1;sourcePerimeterSpacing=5;endArrow=none;endFill=0;targetPerimeterSpacing=5;" edge="1" parent="D8BeeDaUjREZgvLblX8f-2" source="D8BeeDaUjREZgvLblX8f-6">
          <mxGeometry relative="1" as="geometry">
            <mxPoint x="597" y="380.766550522648" as="targetPoint" />
          </mxGeometry>
        </mxCell>
        <mxCell id="D8BeeDaUjREZgvLblX8f-5" value="Reporting" style="shape=image;verticalLabelPosition=bottom;verticalAlign=top;imageAspect=0;aspect=fixed;image=data:image/svg+xml,PHN2ZyB4bWxucz0iaHR0cDovL3d3dy53My5vcmcvMjAwMC9zdmciIHZlcnNpb249IjEiIHZpZXdCb3g9IjAgMCA0OCA0OCIgZW5hYmxlLWJhY2tncm91bmQ9Im5ldyAwIDAgNDggNDgiPiYjeGE7ICAgIDxwYXRoIGZpbGw9IiM3ODkwOUMiIGQ9Ik00MCw0MUg4Yy0yLjIsMC00LTEuOC00LTRsMC0yMC45YzAtMS4zLDAuNi0yLjUsMS43LTMuM0wyNCwwbDE4LjMsMTIuOGMxLjEsMC43LDEuNywyLDEuNywzLjNWMzcgQzQ0LDM5LjIsNDIuMiw0MSw0MCw0MXoiLz4mI3hhOyAgICA8cmVjdCB4PSIxMiIgeT0iMTEiIGZpbGw9IiNmZmYiIHdpZHRoPSIyNCIgaGVpZ2h0PSIyMiIvPiYjeGE7ICAgIDxwb2x5Z29uIGZpbGw9IiM5QzI3QjAiIHBvaW50cz0iMjQsMTMuNiAxOCwyMS40IDMwLDIxLjQiLz4mI3hhOyAgICA8cGF0aCBmaWxsPSIjQ0ZEOERDIiBkPSJNNDAsNDFIOGMtMi4yLDAtNC0xLjgtNC00bDAtMjBsMjAsMTNsMjAtMTN2MjBDNDQsMzkuMiw0Mi4yLDQxLDQwLDQxeiIvPiYjeGE7ICAgIDxwb2x5Z29uIGZpbGw9IiM5QzI3QjAiIHBvaW50cz0iMjQsMjggMjYsMjYuNyAyNiwyMCAyMiwyMCAyMiwyNi43Ii8+JiN4YTs8L3N2Zz4=;labelBackgroundColor=#ffffff;" vertex="1" parent="D8BeeDaUjREZgvLblX8f-2">
          <mxGeometry x="424.86000000000007" y="671" width="48" height="48" as="geometry" />
        </mxCell>
        <mxCell id="D8BeeDaUjREZgvLblX8f-6" value="Security" style="shape=image;verticalLabelPosition=bottom;verticalAlign=top;imageAspect=0;aspect=fixed;image=data:image/svg+xml,PHN2ZyB4bWxucz0iaHR0cDovL3d3dy53My5vcmcvMjAwMC9zdmciIHZlcnNpb249IjEiIHZpZXdCb3g9IjAgMCA0OCA0OCIgZW5hYmxlLWJhY2tncm91bmQ9Im5ldyAwIDAgNDggNDgiPiYjeGE7ICAgIDxwYXRoIGZpbGw9IiM0MjQyNDIiIGQ9Ik0yNCw0Yy01LjUsMC0xMCw0LjUtMTAsMTB2NGg0di00YzAtMy4zLDIuNy02LDYtNnM2LDIuNyw2LDZ2NGg0di00QzM0LDguNSwyOS41LDQsMjQsNHoiLz4mI3hhOyAgICA8cGF0aCBmaWxsPSIjRkI4QzAwIiBkPSJNMzYsNDRIMTJjLTIuMiwwLTQtMS44LTQtNFYyMmMwLTIuMiwxLjgtNCw0LTRoMjRjMi4yLDAsNCwxLjgsNCw0djE4QzQwLDQyLjIsMzguMiw0NCwzNiw0NHoiLz4mI3hhOyAgICA8Y2lyY2xlIGZpbGw9IiNDNzZFMDAiIGN4PSIyNCIgY3k9IjMxIiByPSIzIi8+JiN4YTs8L3N2Zz4=;labelBackgroundColor=#ffffff;" vertex="1" parent="D8BeeDaUjREZgvLblX8f-2">
          <mxGeometry x="341" y="360" width="48" height="48" as="geometry" />
        </mxCell>
        <mxCell id="D8BeeDaUjREZgvLblX8f-7" value="" style="shape=image;verticalLabelPosition=bottom;verticalAlign=top;imageAspect=0;aspect=fixed;image=data:image/svg+xml,PHN2ZyB4bWxucz0iaHR0cDovL3d3dy53My5vcmcvMjAwMC9zdmciIHZlcnNpb249IjEiIHZpZXdCb3g9IjAgMCA0OCA0OCIgZW5hYmxlLWJhY2tncm91bmQ9Im5ldyAwIDAgNDggNDgiPiYjeGE7ICAgIDxwYXRoIGZpbGw9IiNDRkQ4REMiIGQ9Ik01LDM4VjE0aDM4djI0YzAsMi4yLTEuOCw0LTQsNEg5QzYuOCw0Miw1LDQwLjIsNSwzOHoiLz4mI3hhOyAgICA8cGF0aCBmaWxsPSIjRjQ0MzM2IiBkPSJNNDMsMTB2Nkg1di02YzAtMi4yLDEuOC00LDQtNGgzMEM0MS4yLDYsNDMsNy44LDQzLDEweiIvPiYjeGE7ICAgIDxnIGZpbGw9IiNCNzFDMUMiPiYjeGE7ICAgICAgICA8Y2lyY2xlIGN4PSIzMyIgY3k9IjEwIiByPSIzIi8+JiN4YTsgICAgICAgIDxjaXJjbGUgY3g9IjE1IiBjeT0iMTAiIHI9IjMiLz4mI3hhOyAgICA8L2c+JiN4YTsgICAgPGcgZmlsbD0iI0IwQkVDNSI+JiN4YTsgICAgICAgIDxwYXRoIGQ9Ik0zMywzYy0xLjEsMC0yLDAuOS0yLDJ2NWMwLDEuMSwwLjksMiwyLDJzMi0wLjksMi0yVjVDMzUsMy45LDM0LjEsMywzMywzeiIvPiYjeGE7ICAgICAgICA8cGF0aCBkPSJNMTUsM2MtMS4xLDAtMiwwLjktMiwydjVjMCwxLjEsMC45LDIsMiwyczItMC45LDItMlY1QzE3LDMuOSwxNi4xLDMsMTUsM3oiLz4mI3hhOyAgICA8L2c+JiN4YTsgICAgPGcgZmlsbD0iI0IwQkVDNSI+JiN4YTsgICAgICAgIDxyZWN0IHg9IjEzIiB5PSIyMSIgd2lkdGg9IjYiIGhlaWdodD0iNiIvPiYjeGE7ICAgICAgICA8cmVjdCB4PSIyMSIgeT0iMjEiIHdpZHRoPSI2IiBoZWlnaHQ9IjYiLz4mI3hhOyAgICAgICAgPHJlY3QgeD0iMjkiIHk9IjIxIiB3aWR0aD0iNiIgaGVpZ2h0PSI2Ii8+JiN4YTsgICAgICAgIDxyZWN0IHg9IjEzIiB5PSIyOSIgd2lkdGg9IjYiIGhlaWdodD0iNiIvPiYjeGE7ICAgICAgICA8cmVjdCB4PSIyMSIgeT0iMjkiIHdpZHRoPSI2IiBoZWlnaHQ9IjYiLz4mI3hhOyAgICA8L2c+JiN4YTsgICAgPHJlY3QgeD0iMjkiIHk9IjI5IiBmaWxsPSIjRjQ0MzM2IiB3aWR0aD0iNiIgaGVpZ2h0PSI2Ii8+JiN4YTs8L3N2Zz4=;labelBackgroundColor=#ffffff;" vertex="1" parent="D8BeeDaUjREZgvLblX8f-2">
          <mxGeometry x="798" y="318" width="48" height="48" as="geometry" />
        </mxCell>
        <mxCell id="D8BeeDaUjREZgvLblX8f-8" value="Dashboard" style="shape=image;verticalLabelPosition=bottom;verticalAlign=top;imageAspect=0;aspect=fixed;image=data:image/svg+xml,PHN2ZyB4bWxucz0iaHR0cDovL3d3dy53My5vcmcvMjAwMC9zdmciIHZlcnNpb249IjEiIHZpZXdCb3g9IjAgMCA0OCA0OCIgZW5hYmxlLWJhY2tncm91bmQ9Im5ldyAwIDAgNDggNDgiPiYjeGE7ICAgIDxwb2x5Z29uIGZpbGw9IiM5MENBRjkiIHBvaW50cz0iMzYuOSwxMy44IDM1LjEsMTAuMiA3LjUsMjQgMzUuMSwzNy44IDM2LjksMzQuMiAxNi41LDI0Ii8+JiN4YTsgICAgPHJlY3QgeD0iNiIgeT0iMTgiIGZpbGw9IiNEODFCNjAiIHdpZHRoPSIxMiIgaGVpZ2h0PSIxMiIvPiYjeGE7ICAgIDxnIGZpbGw9IiMyMTk2RjMiPiYjeGE7ICAgICAgICA8cmVjdCB4PSIzMCIgeT0iNiIgd2lkdGg9IjEyIiBoZWlnaHQ9IjEyIi8+JiN4YTsgICAgICAgIDxyZWN0IHg9IjMwIiB5PSIzMCIgd2lkdGg9IjEyIiBoZWlnaHQ9IjEyIi8+JiN4YTsgICAgPC9nPiYjeGE7PC9zdmc+;labelBackgroundColor=#ffffff;" vertex="1" parent="D8BeeDaUjREZgvLblX8f-2">
          <mxGeometry x="550" y="671" width="48" height="48" as="geometry" />
        </mxCell>
        <mxCell id="D8BeeDaUjREZgvLblX8f-9" value="Outside User" style="swimlane;" vertex="1" parent="D8BeeDaUjREZgvLblX8f-2">
          <mxGeometry x="138" width="200" height="200" as="geometry" />
        </mxCell>
        <mxCell id="D8BeeDaUjREZgvLblX8f-10" value="User" style="shape=image;verticalLabelPosition=bottom;verticalAlign=top;imageAspect=0;aspect=fixed;image=data:image/svg+xml,PHN2ZyB4bWxucz0iaHR0cDovL3d3dy53My5vcmcvMjAwMC9zdmciIHZlcnNpb249IjEiIHZpZXdCb3g9IjAgMCA0OCA0OCIgZW5hYmxlLWJhY2tncm91bmQ9Im5ldyAwIDAgNDggNDgiPiYjeGE7ICAgIDxwb2x5Z29uIGZpbGw9IiNGRjk4MDAiIHBvaW50cz0iMjQsMzcgMTksMzEgMTksMjUgMjksMjUgMjksMzEiLz4mI3hhOyAgICA8ZyBmaWxsPSIjRkZBNzI2Ij4mI3hhOyAgICAgICAgPGNpcmNsZSBjeD0iMzMiIGN5PSIxOSIgcj0iMiIvPiYjeGE7ICAgICAgICA8Y2lyY2xlIGN4PSIxNSIgY3k9IjE5IiByPSIyIi8+JiN4YTsgICAgPC9nPiYjeGE7ICAgIDxwYXRoIGZpbGw9IiNGRkI3NEQiIGQ9Ik0zMywxM2MwLTcuNi0xOC01LTE4LDBjMCwxLjEsMCw1LjksMCw3YzAsNSw0LDksOSw5czktNCw5LTlDMzMsMTguOSwzMywxNC4xLDMzLDEzeiIvPiYjeGE7ICAgIDxwYXRoIGZpbGw9IiM0MjQyNDIiIGQ9Ik0yNCw0Yy02LjEsMC0xMCw0LjktMTAsMTFjMCwwLjgsMCwyLjMsMCwyLjNsMiwxLjd2LTVsMTItNGw0LDR2NWwyLTEuN2MwLDAsMC0xLjUsMC0yLjNjMC00LTEtOC02LTlsLTEtMiBIMjR6Ii8+JiN4YTsgICAgPGcgZmlsbD0iIzc4NDcxOSI+JiN4YTsgICAgICAgIDxjaXJjbGUgY3g9IjI4IiBjeT0iMTkiIHI9IjEiLz4mI3hhOyAgICAgICAgPGNpcmNsZSBjeD0iMjAiIGN5PSIxOSIgcj0iMSIvPiYjeGE7ICAgIDwvZz4mI3hhOyAgICA8cG9seWdvbiBmaWxsPSIjZmZmIiBwb2ludHM9IjI0LDQzIDE5LDMxIDI0LDMyIDI5LDMxIi8+JiN4YTsgICAgPHBvbHlnb24gZmlsbD0iI0QzMkYyRiIgcG9pbnRzPSIyMywzNSAyMi4zLDM5LjUgMjQsNDMuNSAyNS43LDM5LjUgMjUsMzUgMjYsMzQgMjQsMzIgMjIsMzQiLz4mI3hhOyAgICA8cGF0aCBmaWxsPSIjNTQ2RTdBIiBkPSJNMjksMzFMMjksMzFsLTUsMTJsLTUtMTJjMCwwLTExLDItMTEsMTNoMzJDNDAsMzMsMjksMzEsMjksMzF6Ii8+JiN4YTs8L3N2Zz4=;labelBackgroundColor=#ffffff;" vertex="1" parent="D8BeeDaUjREZgvLblX8f-9">
          <mxGeometry x="22" y="50" width="48" height="48" as="geometry" />
        </mxCell>
        <mxCell id="D8BeeDaUjREZgvLblX8f-11" value="User" style="shape=image;verticalLabelPosition=bottom;verticalAlign=top;imageAspect=0;aspect=fixed;image=data:image/svg+xml,PHN2ZyB4bWxucz0iaHR0cDovL3d3dy53My5vcmcvMjAwMC9zdmciIHZlcnNpb249IjEiIHZpZXdCb3g9IjAgMCA0OCA0OCIgZW5hYmxlLWJhY2tncm91bmQ9Im5ldyAwIDAgNDggNDgiPiYjeGE7ICAgIDxwb2x5Z29uIGZpbGw9IiNGRjk4MDAiIHBvaW50cz0iMjQsMzcgMTksMzEgMTksMjUgMjksMjUgMjksMzEiLz4mI3hhOyAgICA8ZyBmaWxsPSIjRkZBNzI2Ij4mI3hhOyAgICAgICAgPGNpcmNsZSBjeD0iMzMiIGN5PSIxOSIgcj0iMiIvPiYjeGE7ICAgICAgICA8Y2lyY2xlIGN4PSIxNSIgY3k9IjE5IiByPSIyIi8+JiN4YTsgICAgPC9nPiYjeGE7ICAgIDxwYXRoIGZpbGw9IiNGRkI3NEQiIGQ9Ik0zMywxM2MwLTcuNi0xOC01LTE4LDBjMCwxLjEsMCw1LjksMCw3YzAsNSw0LDksOSw5czktNCw5LTlDMzMsMTguOSwzMywxNC4xLDMzLDEzeiIvPiYjeGE7ICAgIDxwYXRoIGZpbGw9IiM0MjQyNDIiIGQ9Ik0yNCw0Yy02LjEsMC0xMCw0LjktMTAsMTFjMCwwLjgsMCwyLjMsMCwyLjNsMiwxLjd2LTVsMTItNGw0LDR2NWwyLTEuN2MwLDAsMC0xLjUsMC0yLjNjMC00LTEtOC02LTlsLTEtMiBIMjR6Ii8+JiN4YTsgICAgPGcgZmlsbD0iIzc4NDcxOSI+JiN4YTsgICAgICAgIDxjaXJjbGUgY3g9IjI4IiBjeT0iMTkiIHI9IjEiLz4mI3hhOyAgICAgICAgPGNpcmNsZSBjeD0iMjAiIGN5PSIxOSIgcj0iMSIvPiYjeGE7ICAgIDwvZz4mI3hhOyAgICA8cG9seWdvbiBmaWxsPSIjZmZmIiBwb2ludHM9IjI0LDQzIDE5LDMxIDI0LDMyIDI5LDMxIi8+JiN4YTsgICAgPHBvbHlnb24gZmlsbD0iI0QzMkYyRiIgcG9pbnRzPSIyMywzNSAyMi4zLDM5LjUgMjQsNDMuNSAyNS43LDM5LjUgMjUsMzUgMjYsMzQgMjQsMzIgMjIsMzQiLz4mI3hhOyAgICA8cGF0aCBmaWxsPSIjNTQ2RTdBIiBkPSJNMjksMzFMMjksMzFsLTUsMTJsLTUtMTJjMCwwLTExLDItMTEsMTNoMzJDNDAsMzMsMjksMzEsMjksMzF6Ii8+JiN4YTs8L3N2Zz4=;labelBackgroundColor=#ffffff;" vertex="1" parent="D8BeeDaUjREZgvLblX8f-9">
          <mxGeometry x="102" y="50" width="48" height="48" as="geometry" />
        </mxCell>
        <mxCell id="D8BeeDaUjREZgvLblX8f-12" value="User" style="shape=image;verticalLabelPosition=bottom;verticalAlign=top;imageAspect=0;aspect=fixed;image=data:image/svg+xml,PHN2ZyB4bWxucz0iaHR0cDovL3d3dy53My5vcmcvMjAwMC9zdmciIHZlcnNpb249IjEiIHZpZXdCb3g9IjAgMCA0OCA0OCIgZW5hYmxlLWJhY2tncm91bmQ9Im5ldyAwIDAgNDggNDgiPiYjeGE7ICAgIDxwb2x5Z29uIGZpbGw9IiNGRjk4MDAiIHBvaW50cz0iMjQsMzcgMTksMzEgMTksMjUgMjksMjUgMjksMzEiLz4mI3hhOyAgICA8ZyBmaWxsPSIjRkZBNzI2Ij4mI3hhOyAgICAgICAgPGNpcmNsZSBjeD0iMzMiIGN5PSIxOSIgcj0iMiIvPiYjeGE7ICAgICAgICA8Y2lyY2xlIGN4PSIxNSIgY3k9IjE5IiByPSIyIi8+JiN4YTsgICAgPC9nPiYjeGE7ICAgIDxwYXRoIGZpbGw9IiNGRkI3NEQiIGQ9Ik0zMywxM2MwLTcuNi0xOC01LTE4LDBjMCwxLjEsMCw1LjksMCw3YzAsNSw0LDksOSw5czktNCw5LTlDMzMsMTguOSwzMywxNC4xLDMzLDEzeiIvPiYjeGE7ICAgIDxwYXRoIGZpbGw9IiM0MjQyNDIiIGQ9Ik0yNCw0Yy02LjEsMC0xMCw0LjktMTAsMTFjMCwwLjgsMCwyLjMsMCwyLjNsMiwxLjd2LTVsMTItNGw0LDR2NWwyLTEuN2MwLDAsMC0xLjUsMC0yLjNjMC00LTEtOC02LTlsLTEtMiBIMjR6Ii8+JiN4YTsgICAgPGcgZmlsbD0iIzc4NDcxOSI+JiN4YTsgICAgICAgIDxjaXJjbGUgY3g9IjI4IiBjeT0iMTkiIHI9IjEiLz4mI3hhOyAgICAgICAgPGNpcmNsZSBjeD0iMjAiIGN5PSIxOSIgcj0iMSIvPiYjeGE7ICAgIDwvZz4mI3hhOyAgICA8cG9seWdvbiBmaWxsPSIjZmZmIiBwb2ludHM9IjI0LDQzIDE5LDMxIDI0LDMyIDI5LDMxIi8+JiN4YTsgICAgPHBvbHlnb24gZmlsbD0iI0QzMkYyRiIgcG9pbnRzPSIyMywzNSAyMi4zLDM5LjUgMjQsNDMuNSAyNS43LDM5LjUgMjUsMzUgMjYsMzQgMjQsMzIgMjIsMzQiLz4mI3hhOyAgICA8cGF0aCBmaWxsPSIjNTQ2RTdBIiBkPSJNMjksMzFMMjksMzFsLTUsMTJsLTUtMTJjMCwwLTExLDItMTEsMTNoMzJDNDAsMzMsMjksMzEsMjksMzF6Ii8+JiN4YTs8L3N2Zz4=;labelBackgroundColor=#ffffff;" vertex="1" parent="D8BeeDaUjREZgvLblX8f-9">
          <mxGeometry x="22" y="130" width="48" height="48" as="geometry" />
        </mxCell>
        <mxCell id="D8BeeDaUjREZgvLblX8f-13" value="" style="shape=image;verticalLabelPosition=bottom;verticalAlign=top;imageAspect=0;aspect=fixed;image=data:image/svg+xml,PHN2ZyB4bWxucz0iaHR0cDovL3d3dy53My5vcmcvMjAwMC9zdmciIHZlcnNpb249IjEiIHZpZXdCb3g9IjAgMCA0OCA0OCIgZW5hYmxlLWJhY2tncm91bmQ9Im5ldyAwIDAgNDggNDgiPiYjeGE7ICAgIDxwb2x5Z29uIGZpbGw9IiNDRkQ4REMiIHBvaW50cz0iMzUsMzYgMzksMzYgMzksMjIgMjYsMjIgMjYsMTMgMjIsMTMgMjIsMjIgOSwyMiA5LDM2IDEzLDM2IDEzLDI2IDIyLDI2IDIyLDM2IDI2LDM2IDI2LDI2IDM1LDI2Ii8+JiN4YTsgICAgPHJlY3QgeD0iMTciIHk9IjYiIGZpbGw9IiMzRjUxQjUiIHdpZHRoPSIxNCIgaGVpZ2h0PSIxMCIvPiYjeGE7ICAgIDxyZWN0IHg9IjMyIiB5PSIzMiIgZmlsbD0iIzAwQkNENCIgd2lkdGg9IjEwIiBoZWlnaHQ9IjEwIi8+JiN4YTsgICAgPHJlY3QgeD0iNiIgeT0iMzIiIGZpbGw9IiMwMEJDRDQiIHdpZHRoPSIxMCIgaGVpZ2h0PSIxMCIvPiYjeGE7ICAgIDxyZWN0IHg9IjE5IiB5PSIzMiIgZmlsbD0iIzAwQkNENCIgd2lkdGg9IjEwIiBoZWlnaHQ9IjEwIi8+JiN4YTs8L3N2Zz4=" vertex="1" parent="D8BeeDaUjREZgvLblX8f-9">
          <mxGeometry x="102" y="140" width="48" height="48" as="geometry" />
        </mxCell>
        <mxCell id="D8BeeDaUjREZgvLblX8f-14" value="Local User" style="swimlane;" vertex="1" parent="D8BeeDaUjREZgvLblX8f-2">
          <mxGeometry x="368" width="200" height="200" as="geometry" />
        </mxCell>
        <mxCell id="D8BeeDaUjREZgvLblX8f-15" value="User" style="shape=image;verticalLabelPosition=bottom;verticalAlign=top;imageAspect=0;aspect=fixed;image=data:image/svg+xml,PHN2ZyB4bWxucz0iaHR0cDovL3d3dy53My5vcmcvMjAwMC9zdmciIHZlcnNpb249IjEiIHZpZXdCb3g9IjAgMCA0OCA0OCIgZW5hYmxlLWJhY2tncm91bmQ9Im5ldyAwIDAgNDggNDgiPiYjeGE7ICAgIDxwb2x5Z29uIGZpbGw9IiNGRjk4MDAiIHBvaW50cz0iMjQsMzcgMTksMzEgMTksMjUgMjksMjUgMjksMzEiLz4mI3hhOyAgICA8ZyBmaWxsPSIjRkZBNzI2Ij4mI3hhOyAgICAgICAgPGNpcmNsZSBjeD0iMzMiIGN5PSIxOSIgcj0iMiIvPiYjeGE7ICAgICAgICA8Y2lyY2xlIGN4PSIxNSIgY3k9IjE5IiByPSIyIi8+JiN4YTsgICAgPC9nPiYjeGE7ICAgIDxwYXRoIGZpbGw9IiNGRkI3NEQiIGQ9Ik0zMywxM2MwLTcuNi0xOC01LTE4LDBjMCwxLjEsMCw1LjksMCw3YzAsNSw0LDksOSw5czktNCw5LTlDMzMsMTguOSwzMywxNC4xLDMzLDEzeiIvPiYjeGE7ICAgIDxwYXRoIGZpbGw9IiM0MjQyNDIiIGQ9Ik0yNCw0Yy02LjEsMC0xMCw0LjktMTAsMTFjMCwwLjgsMCwyLjMsMCwyLjNsMiwxLjd2LTVsMTItNGw0LDR2NWwyLTEuN2MwLDAsMC0xLjUsMC0yLjNjMC00LTEtOC02LTlsLTEtMiBIMjR6Ii8+JiN4YTsgICAgPGcgZmlsbD0iIzc4NDcxOSI+JiN4YTsgICAgICAgIDxjaXJjbGUgY3g9IjI4IiBjeT0iMTkiIHI9IjEiLz4mI3hhOyAgICAgICAgPGNpcmNsZSBjeD0iMjAiIGN5PSIxOSIgcj0iMSIvPiYjeGE7ICAgIDwvZz4mI3hhOyAgICA8cG9seWdvbiBmaWxsPSIjZmZmIiBwb2ludHM9IjI0LDQzIDE5LDMxIDI0LDMyIDI5LDMxIi8+JiN4YTsgICAgPHBvbHlnb24gZmlsbD0iI0QzMkYyRiIgcG9pbnRzPSIyMywzNSAyMi4zLDM5LjUgMjQsNDMuNSAyNS43LDM5LjUgMjUsMzUgMjYsMzQgMjQsMzIgMjIsMzQiLz4mI3hhOyAgICA8cGF0aCBmaWxsPSIjNTQ2RTdBIiBkPSJNMjksMzFMMjksMzFsLTUsMTJsLTUtMTJjMCwwLTExLDItMTEsMTNoMzJDNDAsMzMsMjksMzEsMjksMzF6Ii8+JiN4YTs8L3N2Zz4=;labelBackgroundColor=#ffffff;" vertex="1" parent="D8BeeDaUjREZgvLblX8f-14">
          <mxGeometry x="22" y="50" width="48" height="48" as="geometry" />
        </mxCell>
        <mxCell id="D8BeeDaUjREZgvLblX8f-16" value="User" style="shape=image;verticalLabelPosition=bottom;verticalAlign=top;imageAspect=0;aspect=fixed;image=data:image/svg+xml,PHN2ZyB4bWxucz0iaHR0cDovL3d3dy53My5vcmcvMjAwMC9zdmciIHZlcnNpb249IjEiIHZpZXdCb3g9IjAgMCA0OCA0OCIgZW5hYmxlLWJhY2tncm91bmQ9Im5ldyAwIDAgNDggNDgiPiYjeGE7ICAgIDxwb2x5Z29uIGZpbGw9IiNGRjk4MDAiIHBvaW50cz0iMjQsMzcgMTksMzEgMTksMjUgMjksMjUgMjksMzEiLz4mI3hhOyAgICA8ZyBmaWxsPSIjRkZBNzI2Ij4mI3hhOyAgICAgICAgPGNpcmNsZSBjeD0iMzMiIGN5PSIxOSIgcj0iMiIvPiYjeGE7ICAgICAgICA8Y2lyY2xlIGN4PSIxNSIgY3k9IjE5IiByPSIyIi8+JiN4YTsgICAgPC9nPiYjeGE7ICAgIDxwYXRoIGZpbGw9IiNGRkI3NEQiIGQ9Ik0zMywxM2MwLTcuNi0xOC01LTE4LDBjMCwxLjEsMCw1LjksMCw3YzAsNSw0LDksOSw5czktNCw5LTlDMzMsMTguOSwzMywxNC4xLDMzLDEzeiIvPiYjeGE7ICAgIDxwYXRoIGZpbGw9IiM0MjQyNDIiIGQ9Ik0yNCw0Yy02LjEsMC0xMCw0LjktMTAsMTFjMCwwLjgsMCwyLjMsMCwyLjNsMiwxLjd2LTVsMTItNGw0LDR2NWwyLTEuN2MwLDAsMC0xLjUsMC0yLjNjMC00LTEtOC02LTlsLTEtMiBIMjR6Ii8+JiN4YTsgICAgPGcgZmlsbD0iIzc4NDcxOSI+JiN4YTsgICAgICAgIDxjaXJjbGUgY3g9IjI4IiBjeT0iMTkiIHI9IjEiLz4mI3hhOyAgICAgICAgPGNpcmNsZSBjeD0iMjAiIGN5PSIxOSIgcj0iMSIvPiYjeGE7ICAgIDwvZz4mI3hhOyAgICA8cG9seWdvbiBmaWxsPSIjZmZmIiBwb2ludHM9IjI0LDQzIDE5LDMxIDI0LDMyIDI5LDMxIi8+JiN4YTsgICAgPHBvbHlnb24gZmlsbD0iI0QzMkYyRiIgcG9pbnRzPSIyMywzNSAyMi4zLDM5LjUgMjQsNDMuNSAyNS43LDM5LjUgMjUsMzUgMjYsMzQgMjQsMzIgMjIsMzQiLz4mI3hhOyAgICA8cGF0aCBmaWxsPSIjNTQ2RTdBIiBkPSJNMjksMzFMMjksMzFsLTUsMTJsLTUtMTJjMCwwLTExLDItMTEsMTNoMzJDNDAsMzMsMjksMzEsMjksMzF6Ii8+JiN4YTs8L3N2Zz4=;labelBackgroundColor=#ffffff;" vertex="1" parent="D8BeeDaUjREZgvLblX8f-14">
          <mxGeometry x="102" y="50" width="48" height="48" as="geometry" />
        </mxCell>
        <mxCell id="D8BeeDaUjREZgvLblX8f-17" value="User" style="shape=image;verticalLabelPosition=bottom;verticalAlign=top;imageAspect=0;aspect=fixed;image=data:image/svg+xml,PHN2ZyB4bWxucz0iaHR0cDovL3d3dy53My5vcmcvMjAwMC9zdmciIHZlcnNpb249IjEiIHZpZXdCb3g9IjAgMCA0OCA0OCIgZW5hYmxlLWJhY2tncm91bmQ9Im5ldyAwIDAgNDggNDgiPiYjeGE7ICAgIDxwb2x5Z29uIGZpbGw9IiNGRjk4MDAiIHBvaW50cz0iMjQsMzcgMTksMzEgMTksMjUgMjksMjUgMjksMzEiLz4mI3hhOyAgICA8ZyBmaWxsPSIjRkZBNzI2Ij4mI3hhOyAgICAgICAgPGNpcmNsZSBjeD0iMzMiIGN5PSIxOSIgcj0iMiIvPiYjeGE7ICAgICAgICA8Y2lyY2xlIGN4PSIxNSIgY3k9IjE5IiByPSIyIi8+JiN4YTsgICAgPC9nPiYjeGE7ICAgIDxwYXRoIGZpbGw9IiNGRkI3NEQiIGQ9Ik0zMywxM2MwLTcuNi0xOC01LTE4LDBjMCwxLjEsMCw1LjksMCw3YzAsNSw0LDksOSw5czktNCw5LTlDMzMsMTguOSwzMywxNC4xLDMzLDEzeiIvPiYjeGE7ICAgIDxwYXRoIGZpbGw9IiM0MjQyNDIiIGQ9Ik0yNCw0Yy02LjEsMC0xMCw0LjktMTAsMTFjMCwwLjgsMCwyLjMsMCwyLjNsMiwxLjd2LTVsMTItNGw0LDR2NWwyLTEuN2MwLDAsMC0xLjUsMC0yLjNjMC00LTEtOC02LTlsLTEtMiBIMjR6Ii8+JiN4YTsgICAgPGcgZmlsbD0iIzc4NDcxOSI+JiN4YTsgICAgICAgIDxjaXJjbGUgY3g9IjI4IiBjeT0iMTkiIHI9IjEiLz4mI3hhOyAgICAgICAgPGNpcmNsZSBjeD0iMjAiIGN5PSIxOSIgcj0iMSIvPiYjeGE7ICAgIDwvZz4mI3hhOyAgICA8cG9seWdvbiBmaWxsPSIjZmZmIiBwb2ludHM9IjI0LDQzIDE5LDMxIDI0LDMyIDI5LDMxIi8+JiN4YTsgICAgPHBvbHlnb24gZmlsbD0iI0QzMkYyRiIgcG9pbnRzPSIyMywzNSAyMi4zLDM5LjUgMjQsNDMuNSAyNS43LDM5LjUgMjUsMzUgMjYsMzQgMjQsMzIgMjIsMzQiLz4mI3hhOyAgICA8cGF0aCBmaWxsPSIjNTQ2RTdBIiBkPSJNMjksMzFMMjksMzFsLTUsMTJsLTUtMTJjMCwwLTExLDItMTEsMTNoMzJDNDAsMzMsMjksMzEsMjksMzF6Ii8+JiN4YTs8L3N2Zz4=;labelBackgroundColor=#ffffff;" vertex="1" parent="D8BeeDaUjREZgvLblX8f-14">
          <mxGeometry x="120" y="130" width="48" height="48" as="geometry" />
        </mxCell>
        <mxCell id="D8BeeDaUjREZgvLblX8f-18" value="" style="shape=image;verticalLabelPosition=bottom;verticalAlign=top;imageAspect=0;aspect=fixed;image=data:image/svg+xml,PHN2ZyB4bWxucz0iaHR0cDovL3d3dy53My5vcmcvMjAwMC9zdmciIHZlcnNpb249IjEiIHZpZXdCb3g9IjAgMCA0OCA0OCIgZW5hYmxlLWJhY2tncm91bmQ9Im5ldyAwIDAgNDggNDgiPiYjeGE7ICAgIDxwb2x5Z29uIGZpbGw9IiNDRkQ4REMiIHBvaW50cz0iMzUsMzYgMzksMzYgMzksMjIgMjYsMjIgMjYsMTMgMjIsMTMgMjIsMjIgOSwyMiA5LDM2IDEzLDM2IDEzLDI2IDIyLDI2IDIyLDM2IDI2LDM2IDI2LDI2IDM1LDI2Ii8+JiN4YTsgICAgPHJlY3QgeD0iMTciIHk9IjYiIGZpbGw9IiMzRjUxQjUiIHdpZHRoPSIxNCIgaGVpZ2h0PSIxMCIvPiYjeGE7ICAgIDxyZWN0IHg9IjMyIiB5PSIzMiIgZmlsbD0iIzAwQkNENCIgd2lkdGg9IjEwIiBoZWlnaHQ9IjEwIi8+JiN4YTsgICAgPHJlY3QgeD0iNiIgeT0iMzIiIGZpbGw9IiMwMEJDRDQiIHdpZHRoPSIxMCIgaGVpZ2h0PSIxMCIvPiYjeGE7ICAgIDxyZWN0IHg9IjE5IiB5PSIzMiIgZmlsbD0iIzAwQkNENCIgd2lkdGg9IjEwIiBoZWlnaHQ9IjEwIi8+JiN4YTs8L3N2Zz4=" vertex="1" parent="D8BeeDaUjREZgvLblX8f-14">
          <mxGeometry x="22" y="140" width="48" height="48" as="geometry" />
        </mxCell>
        <mxCell id="D8BeeDaUjREZgvLblX8f-19" value="" style="shape=image;verticalLabelPosition=bottom;verticalAlign=top;imageAspect=0;aspect=fixed;image=data:image/svg+xml,PHN2ZyB4bWxucz0iaHR0cDovL3d3dy53My5vcmcvMjAwMC9zdmciIHZlcnNpb249IjEiIHZpZXdCb3g9IjAgMCA0OCA0OCIgZW5hYmxlLWJhY2tncm91bmQ9Im5ldyAwIDAgNDggNDgiPiYjeGE7ICAgIDxnIGZpbGw9IiMwMEJDRDQiPiYjeGE7ICAgICAgICA8cmVjdCB4PSIxOSIgeT0iMjIiIHdpZHRoPSIxMCIgaGVpZ2h0PSIyMCIvPiYjeGE7ICAgICAgICA8cmVjdCB4PSI2IiB5PSIxMiIgd2lkdGg9IjEwIiBoZWlnaHQ9IjMwIi8+JiN4YTsgICAgICAgIDxyZWN0IHg9IjMyIiB5PSI2IiB3aWR0aD0iMTAiIGhlaWdodD0iMzYiLz4mI3hhOyAgICA8L2c+JiN4YTs8L3N2Zz4=" vertex="1" parent="D8BeeDaUjREZgvLblX8f-2">
          <mxGeometry x="659" y="222" width="48" height="48" as="geometry" />
        </mxCell>
        <mxCell id="D8BeeDaUjREZgvLblX8f-20" value="" style="shape=image;verticalLabelPosition=bottom;verticalAlign=top;imageAspect=0;aspect=fixed;image=data:image/svg+xml,PHN2ZyB4bWxucz0iaHR0cDovL3d3dy53My5vcmcvMjAwMC9zdmciIHZlcnNpb249IjEiIHZpZXdCb3g9IjAgMCA0OCA0OCIgZW5hYmxlLWJhY2tncm91bmQ9Im5ldyAwIDAgNDggNDgiPiYjeGE7ICAgIDxnIGZpbGw9IiM0Q0FGNTAiPiYjeGE7ICAgICAgICA8cmVjdCB4PSI0MCIgeT0iMjEiIHdpZHRoPSI0IiBoZWlnaHQ9IjIzIi8+JiN4YTsgICAgICAgIDxyZWN0IHg9IjM0IiB5PSIyOCIgd2lkdGg9IjQiIGhlaWdodD0iMTYiLz4mI3hhOyAgICAgICAgPHJlY3QgeD0iMjgiIHk9IjIzIiB3aWR0aD0iNCIgaGVpZ2h0PSIyMSIvPiYjeGE7ICAgICAgICA8cmVjdCB4PSIyMiIgeT0iMjkiIHdpZHRoPSI0IiBoZWlnaHQ9IjE1Ii8+JiN4YTsgICAgICAgIDxyZWN0IHg9IjE2IiB5PSIzMiIgd2lkdGg9IjQiIGhlaWdodD0iMTIiLz4mI3hhOyAgICAgICAgPHJlY3QgeD0iMTAiIHk9IjMwIiB3aWR0aD0iNCIgaGVpZ2h0PSIxNCIvPiYjeGE7ICAgICAgICA8cmVjdCB4PSI0IiB5PSIzNCIgd2lkdGg9IjQiIGhlaWdodD0iMTAiLz4mI3hhOyAgICA8L2c+JiN4YTsgICAgPGcgZmlsbD0iIzM4OEUzQyI+JiN4YTsgICAgICAgIDxwb2x5Z29uIHBvaW50cz0iNDAuMSw5LjEgMzQsMTUuMiAzMCwxMS4yIDIwLDIxLjIgMTUsMTYuMiA0LjYsMjYuNiA3LjQsMjkuNCAxNSwyMS44IDIwLDI2LjggMzAsMTYuOCAzNCwyMC44IDQyLjksMTEuOSIvPiYjeGE7ICAgICAgICA8cG9seWdvbiBwb2ludHM9IjQ0LDggMzUsOCA0NCwxNyIvPiYjeGE7ICAgIDwvZz4mI3hhOzwvc3ZnPg==" vertex="1" parent="D8BeeDaUjREZgvLblX8f-2">
          <mxGeometry x="543" y="780" width="70" height="70" as="geometry" />
        </mxCell>
        <mxCell id="D8BeeDaUjREZgvLblX8f-21" style="edgeStyle=none;rounded=0;orthogonalLoop=1;jettySize=auto;html=1;" edge="1" parent="D8BeeDaUjREZgvLblX8f-2" source="D8BeeDaUjREZgvLblX8f-8" target="D8BeeDaUjREZgvLblX8f-20">
          <mxGeometry relative="1" as="geometry" />
        </mxCell>
        <mxCell id="D8BeeDaUjREZgvLblX8f-22" value="" style="shape=image;verticalLabelPosition=bottom;verticalAlign=top;imageAspect=0;aspect=fixed;image=data:image/svg+xml,PHN2ZyB4bWxucz0iaHR0cDovL3d3dy53My5vcmcvMjAwMC9zdmciIHZlcnNpb249IjEiIHZpZXdCb3g9IjAgMCA0OCA0OCIgZW5hYmxlLWJhY2tncm91bmQ9Im5ldyAwIDAgNDggNDgiPiYjeGE7ICAgIDxyZWN0IHg9IjciIHk9IjQiIGZpbGw9IiNCQkRFRkIiIHdpZHRoPSIzNCIgaGVpZ2h0PSI0MCIvPiYjeGE7ICAgIDxnIGZpbGw9IiMyMTk2RjMiPiYjeGE7ICAgICAgICA8cmVjdCB4PSIxMyIgeT0iMjYiIHdpZHRoPSI0IiBoZWlnaHQ9IjQiLz4mI3hhOyAgICAgICAgPHJlY3QgeD0iMTMiIHk9IjE4IiB3aWR0aD0iNCIgaGVpZ2h0PSI0Ii8+JiN4YTsgICAgICAgIDxyZWN0IHg9IjEzIiB5PSIzNCIgd2lkdGg9IjQiIGhlaWdodD0iNCIvPiYjeGE7ICAgICAgICA8cmVjdCB4PSIxMyIgeT0iMTAiIHdpZHRoPSI0IiBoZWlnaHQ9IjQiLz4mI3hhOyAgICAgICAgPHJlY3QgeD0iMjEiIHk9IjI2IiB3aWR0aD0iMTQiIGhlaWdodD0iNCIvPiYjeGE7ICAgICAgICA8cmVjdCB4PSIyMSIgeT0iMTgiIHdpZHRoPSIxNCIgaGVpZ2h0PSI0Ii8+JiN4YTsgICAgICAgIDxyZWN0IHg9IjIxIiB5PSIzNCIgd2lkdGg9IjE0IiBoZWlnaHQ9IjQiLz4mI3hhOyAgICAgICAgPHJlY3QgeD0iMjEiIHk9IjEwIiB3aWR0aD0iMTQiIGhlaWdodD0iNCIvPiYjeGE7ICAgIDwvZz4mI3hhOzwvc3ZnPg==" vertex="1" parent="D8BeeDaUjREZgvLblX8f-2">
          <mxGeometry x="598" y="222" width="48" height="48" as="geometry" />
        </mxCell>
        <mxCell id="D8BeeDaUjREZgvLblX8f-23" value="e-mail" style="shape=image;verticalLabelPosition=bottom;verticalAlign=top;imageAspect=0;aspect=fixed;image=data:image/svg+xml,PHN2ZyB4bWxucz0iaHR0cDovL3d3dy53My5vcmcvMjAwMC9zdmciIHZlcnNpb249IjEiIHZpZXdCb3g9IjAgMCA0OCA0OCIgZW5hYmxlLWJhY2tncm91bmQ9Im5ldyAwIDAgNDggNDgiPiYjeGE7ICAgIDxwYXRoIGZpbGw9IiM3ODkwOUMiIGQ9Ik00MCw0MUg4Yy0yLjIsMC00LTEuOC00LTRsMC0yMC45YzAtMS4zLDAuNi0yLjUsMS43LTMuM0wyNCwwbDE4LjMsMTIuOGMxLjEsMC43LDEuNywyLDEuNywzLjNWMzcgQzQ0LDM5LjIsNDIuMiw0MSw0MCw0MXoiLz4mI3hhOyAgICA8cmVjdCB4PSIxMiIgeT0iMTEiIGZpbGw9IiNmZmYiIHdpZHRoPSIyNCIgaGVpZ2h0PSIyMiIvPiYjeGE7ICAgIDxwb2x5Z29uIGZpbGw9IiM5QzI3QjAiIHBvaW50cz0iMjQsMTMuNiAxOCwyMS40IDMwLDIxLjQiLz4mI3hhOyAgICA8cGF0aCBmaWxsPSIjQ0ZEOERDIiBkPSJNNDAsNDFIOGMtMi4yLDAtNC0xLjgtNC00bDAtMjBsMjAsMTNsMjAtMTN2MjBDNDQsMzkuMiw0Mi4yLDQxLDQwLDQxeiIvPiYjeGE7ICAgIDxwb2x5Z29uIGZpbGw9IiM5QzI3QjAiIHBvaW50cz0iMjQsMjggMjYsMjYuNyAyNiwyMCAyMiwyMCAyMiwyNi43Ii8+JiN4YTs8L3N2Zz4=" vertex="1" parent="D8BeeDaUjREZgvLblX8f-2">
          <mxGeometry x="58" y="810" width="48" height="48" as="geometry" />
        </mxCell>
        <mxCell id="D8BeeDaUjREZgvLblX8f-24" style="rounded=0;orthogonalLoop=1;jettySize=auto;html=1;fontSize=12;endArrow=none;endFill=0;strokeWidth=3;" edge="1" parent="D8BeeDaUjREZgvLblX8f-2" source="D8BeeDaUjREZgvLblX8f-27" target="D8BeeDaUjREZgvLblX8f-22">
          <mxGeometry relative="1" as="geometry" />
        </mxCell>
        <mxCell id="D8BeeDaUjREZgvLblX8f-25" style="rounded=0;orthogonalLoop=1;jettySize=auto;html=1;fontSize=12;endArrow=none;endFill=0;strokeWidth=3;" edge="1" parent="D8BeeDaUjREZgvLblX8f-2" source="D8BeeDaUjREZgvLblX8f-27" target="D8BeeDaUjREZgvLblX8f-19">
          <mxGeometry relative="1" as="geometry" />
        </mxCell>
        <mxCell id="D8BeeDaUjREZgvLblX8f-26" style="rounded=0;orthogonalLoop=1;jettySize=auto;html=1;entryX=0;entryY=0.5;entryDx=0;entryDy=0;fontSize=12;endArrow=none;endFill=0;strokeWidth=3;" edge="1" parent="D8BeeDaUjREZgvLblX8f-2" source="D8BeeDaUjREZgvLblX8f-27" target="D8BeeDaUjREZgvLblX8f-7">
          <mxGeometry relative="1" as="geometry" />
        </mxCell>
        <mxCell id="D8BeeDaUjREZgvLblX8f-27" value="" style="shape=image;verticalLabelPosition=bottom;verticalAlign=top;imageAspect=0;aspect=fixed;image=data:image/svg+xml,PHN2ZyB4bWxucz0iaHR0cDovL3d3dy53My5vcmcvMjAwMC9zdmciIHZlcnNpb249IjEiIHZpZXdCb3g9IjAgMCA0OCA0OCIgZW5hYmxlLWJhY2tncm91bmQ9Im5ldyAwIDAgNDggNDgiPiYjeGE7ICAgIDxyZWN0IHg9IjE3IiB5PSIyOSIgZmlsbD0iIzAzOUJFNSIgd2lkdGg9IjE0IiBoZWlnaHQ9IjIiLz4mI3hhOyAgICA8cmVjdCB4PSIxMyIgeT0iMzMiIGZpbGw9IiMwMzlCRTUiIHdpZHRoPSIyMiIgaGVpZ2h0PSIyIi8+JiN4YTsgICAgPHJlY3QgeD0iOSIgeT0iMzciIGZpbGw9IiMwMzlCRTUiIHdpZHRoPSIzMCIgaGVpZ2h0PSIyIi8+JiN4YTsgICAgPHJlY3QgeD0iNSIgeT0iNDEiIGZpbGw9IiMwMzlCRTUiIHdpZHRoPSIzOCIgaGVpZ2h0PSIyIi8+JiN4YTsgICAgPHBhdGggZmlsbD0iIzgxRDRGQSIgZD0iTTM1LDEzYy0wLjQsMC0wLjgsMC0xLjIsMC4xQzMyLjksOC41LDI4LjksNSwyNCw1Yy00LjEsMC03LjYsMi41LTkuMiw2Yy0wLjMsMC0wLjUsMC0wLjgsMCBjLTQuNCwwLTgsMy42LTgsOHMzLjYsOCw4LDhjMi40LDAsMTguNSwwLDIxLDBjMy45LDAsNy0zLjEsNy03QzQyLDE2LjEsMzguOSwxMywzNSwxM3oiLz4mI3hhOyAgICA8cGF0aCBmaWxsPSIjMDM5QkU1IiBkPSJNMjgsMjFjMC0yLjItMS44LTQtNC00cy00LDEuOC00LDRjMCwwLjUsMCw2LDAsNmg4QzI4LDI3LDI4LDIxLjUsMjgsMjF6Ii8+JiN4YTs8L3N2Zz4=" vertex="1" parent="D8BeeDaUjREZgvLblX8f-2">
          <mxGeometry x="572" y="318" width="160" height="160" as="geometry" />
        </mxCell>
        <mxCell id="D8BeeDaUjREZgvLblX8f-28" value="" style="shape=image;verticalLabelPosition=bottom;verticalAlign=top;imageAspect=0;aspect=fixed;image=data:image/svg+xml,PHN2ZyB4bWxucz0iaHR0cDovL3d3dy53My5vcmcvMjAwMC9zdmciIHZlcnNpb249IjEiIHZpZXdCb3g9IjAgMCA0OCA0OCIgZW5hYmxlLWJhY2tncm91bmQ9Im5ldyAwIDAgNDggNDgiPiYjeGE7ICAgIDxwb2x5Z29uIGZpbGw9IiNDNUNBRTkiIHBvaW50cz0iNDIsNDIgNiw0MiA2LDkgMjQsMiA0Miw5Ii8+JiN4YTsgICAgPHJlY3QgeD0iNiIgeT0iNDIiIGZpbGw9IiM5RkE4REEiIHdpZHRoPSIzNiIgaGVpZ2h0PSIyIi8+JiN4YTsgICAgPHJlY3QgeD0iMjAiIHk9IjM1IiBmaWxsPSIjQkYzNjBDIiB3aWR0aD0iOCIgaGVpZ2h0PSI5Ii8+JiN4YTsgICAgPGcgZmlsbD0iIzE1NjVDMCI+JiN4YTsgICAgICAgIDxyZWN0IHg9IjMxIiB5PSIyNyIgd2lkdGg9IjYiIGhlaWdodD0iNSIvPiYjeGE7ICAgICAgICA8cmVjdCB4PSIyMSIgeT0iMjciIHdpZHRoPSI2IiBoZWlnaHQ9IjUiLz4mI3hhOyAgICAgICAgPHJlY3QgeD0iMTEiIHk9IjI3IiB3aWR0aD0iNiIgaGVpZ2h0PSI1Ii8+JiN4YTsgICAgICAgIDxyZWN0IHg9IjMxIiB5PSIzNSIgd2lkdGg9IjYiIGhlaWdodD0iNSIvPiYjeGE7ICAgICAgICA8cmVjdCB4PSIxMSIgeT0iMzUiIHdpZHRoPSI2IiBoZWlnaHQ9IjUiLz4mI3hhOyAgICAgICAgPHJlY3QgeD0iMzEiIHk9IjE5IiB3aWR0aD0iNiIgaGVpZ2h0PSI1Ii8+JiN4YTsgICAgICAgIDxyZWN0IHg9IjIxIiB5PSIxOSIgd2lkdGg9IjYiIGhlaWdodD0iNSIvPiYjeGE7ICAgICAgICA8cmVjdCB4PSIxMSIgeT0iMTkiIHdpZHRoPSI2IiBoZWlnaHQ9IjUiLz4mI3hhOyAgICAgICAgPHJlY3QgeD0iMzEiIHk9IjExIiB3aWR0aD0iNiIgaGVpZ2h0PSI1Ii8+JiN4YTsgICAgICAgIDxyZWN0IHg9IjIxIiB5PSIxMSIgd2lkdGg9IjYiIGhlaWdodD0iNSIvPiYjeGE7ICAgICAgICA8cmVjdCB4PSIxMSIgeT0iMTEiIHdpZHRoPSI2IiBoZWlnaHQ9IjUiLz4mI3hhOyAgICA8L2c+JiN4YTs8L3N2Zz4=" vertex="1" parent="D8BeeDaUjREZgvLblX8f-2">
          <mxGeometry y="330" width="108" height="108" as="geometry" />
        </mxCell>
        <mxCell id="D8BeeDaUjREZgvLblX8f-29" style="edgeStyle=none;rounded=0;orthogonalLoop=1;jettySize=auto;html=1;sourcePerimeterSpacing=5;endArrow=none;endFill=0;targetPerimeterSpacing=5;" edge="1" parent="D8BeeDaUjREZgvLblX8f-2" source="D8BeeDaUjREZgvLblX8f-28" target="D8BeeDaUjREZgvLblX8f-6">
          <mxGeometry relative="1" as="geometry">
            <mxPoint x="121" y="384" as="sourcePoint" />
          </mxGeometry>
        </mxCell>
        <mxCell id="D8BeeDaUjREZgvLblX8f-31" value="" style="verticalLabelPosition=bottom;verticalAlign=top;html=1;shadow=0;dashed=0;strokeWidth=1;shape=mxgraph.ios.iBgMap;strokeColor=#18211b;strokeColor2=#008cff;fillColor2=#96D1FF;" vertex="1" parent="D8BeeDaUjREZgvLblX8f-2">
          <mxGeometry x="139.3" y="810" width="150" height="145" as="geometry" />
        </mxCell>
        <mxCell id="D8BeeDaUjREZgvLblX8f-32" value="" style="verticalLabelPosition=bottom;shadow=0;dashed=0;align=center;html=1;verticalAlign=top;strokeWidth=1;shape=mxgraph.mockup.misc.map;" vertex="1" parent="D8BeeDaUjREZgvLblX8f-2">
          <mxGeometry x="299.3" y="810" width="150" height="145" as="geometry" />
        </mxCell>
        <mxCell id="D8BeeDaUjREZgvLblX8f-34" style="edgeStyle=none;rounded=0;orthogonalLoop=1;jettySize=auto;html=1;entryX=0.5;entryY=0;entryDx=0;entryDy=0;fontSize=12;strokeWidth=2;fillColor=#6a00ff;strokeColor=#3700CC;" edge="1" parent="D8BeeDaUjREZgvLblX8f-2" source="D8BeeDaUjREZgvLblX8f-38" target="D8BeeDaUjREZgvLblX8f-5">
          <mxGeometry relative="1" as="geometry" />
        </mxCell>
        <mxCell id="D8BeeDaUjREZgvLblX8f-36" style="edgeStyle=none;rounded=0;orthogonalLoop=1;jettySize=auto;html=1;entryX=0.25;entryY=0;entryDx=0;entryDy=0;fontSize=12;strokeWidth=2;fillColor=#6a00ff;strokeColor=#3700CC;" edge="1" parent="D8BeeDaUjREZgvLblX8f-2" source="D8BeeDaUjREZgvLblX8f-38" target="D8BeeDaUjREZgvLblX8f-8">
          <mxGeometry relative="1" as="geometry" />
        </mxCell>
        <mxCell id="D8BeeDaUjREZgvLblX8f-37" value="" style="edgeStyle=orthogonalEdgeStyle;rounded=0;orthogonalLoop=1;jettySize=auto;html=1;" edge="1" parent="D8BeeDaUjREZgvLblX8f-2" source="D8BeeDaUjREZgvLblX8f-38" target="D8BeeDaUjREZgvLblX8f-5">
          <mxGeometry relative="1" as="geometry" />
        </mxCell>
        <mxCell id="D8BeeDaUjREZgvLblX8f-38" value="Application" style="sketch=0;pointerEvents=1;shadow=0;dashed=0;html=1;strokeColor=none;fillColor=#505050;labelPosition=center;verticalLabelPosition=bottom;verticalAlign=top;outlineConnect=0;align=center;shape=mxgraph.office.concepts.application_web;" vertex="1" parent="D8BeeDaUjREZgvLblX8f-2">
          <mxGeometry x="391.72" y="464" width="114.29" height="100" as="geometry" />
        </mxCell>
        <mxCell id="D8BeeDaUjREZgvLblX8f-40" style="edgeStyle=none;rounded=0;orthogonalLoop=1;jettySize=auto;html=1;sourcePerimeterSpacing=5;endArrow=none;endFill=0;targetPerimeterSpacing=5;exitX=0;exitY=0.5;exitDx=0;exitDy=0;" edge="1" parent="D8BeeDaUjREZgvLblX8f-2" source="D8BeeDaUjREZgvLblX8f-27" target="D8BeeDaUjREZgvLblX8f-38">
          <mxGeometry relative="1" as="geometry">
            <mxPoint x="631.6296296296296" y="435" as="sourcePoint" />
            <mxPoint x="602.7407407407404" y="513" as="targetPoint" />
          </mxGeometry>
        </mxCell>
        <mxCell id="D8BeeDaUjREZgvLblX8f-41" value="" style="shape=image;verticalLabelPosition=bottom;verticalAlign=top;imageAspect=0;aspect=fixed;image=data:image/svg+xml,PHN2ZyB4bWxucz0iaHR0cDovL3d3dy53My5vcmcvMjAwMC9zdmciIHZlcnNpb249IjEiIHZpZXdCb3g9IjAgMCA0OCA0OCIgZW5hYmxlLWJhY2tncm91bmQ9Im5ldyAwIDAgNDggNDgiPiYjeGE7ICAgIDxyZWN0IHg9IjEyIiB5PSI0NCIgZmlsbD0iIzI2MzIzOCIgd2lkdGg9IjQiIGhlaWdodD0iMiIvPiYjeGE7ICAgIDxyZWN0IHg9IjMyIiB5PSI0NCIgZmlsbD0iIzI2MzIzOCIgd2lkdGg9IjQiIGhlaWdodD0iMiIvPiYjeGE7ICAgIDxwYXRoIGZpbGw9IiM2MDdEOEIiIGQ9Ik04LDQxVjdjMC0yLjIsMS44LTQsNC00aDI0YzIuMiwwLDQsMS44LDQsNHYzNGMwLDIuMi0xLjgsNC00LDRIMTJDOS44LDQ1LDgsNDMuMiw4LDQxeiIvPiYjeGE7ICAgIDxwYXRoIGZpbGw9IiNCMEJFQzUiIGQ9Ik0xMiwxN1Y4YzAtMC42LDAuNC0xLDEtMWgyMmMwLjYsMCwxLDAuNCwxLDF2OUgxMnoiLz4mI3hhOyAgICA8cmVjdCB4PSIxMiIgeT0iMTkiIGZpbGw9IiNCMEJFQzUiIHdpZHRoPSIyNCIgaGVpZ2h0PSIxMCIvPiYjeGE7ICAgIDxwYXRoIGZpbGw9IiNCMEJFQzUiIGQ9Ik0xMiw0MHYtOWgyNHY5YzAsMC42LTAuNCwxLTEsMUgxM0MxMi40LDQxLDEyLDQwLjYsMTIsNDB6Ii8+JiN4YTsgICAgPHJlY3QgeD0iMjAiIHk9IjExIiBmaWxsPSIjNTQ2RTdBIiB3aWR0aD0iOCIgaGVpZ2h0PSIyIi8+JiN4YTsgICAgPHJlY3QgeD0iMjAiIHk9IjIzIiBmaWxsPSIjNTQ2RTdBIiB3aWR0aD0iOCIgaGVpZ2h0PSIyIi8+JiN4YTsgICAgPHJlY3QgeD0iMjAiIHk9IjM1IiBmaWxsPSIjNTQ2RTdBIiB3aWR0aD0iOCIgaGVpZ2h0PSIyIi8+JiN4YTs8L3N2Zz4=;labelBackgroundColor=#ffffff;" vertex="1" parent="D8BeeDaUjREZgvLblX8f-2">
          <mxGeometry x="798" y="390" width="48" height="48" as="geometry" />
        </mxCell>
        <mxCell id="D8BeeDaUjREZgvLblX8f-42" style="rounded=0;orthogonalLoop=1;jettySize=auto;html=1;entryX=0;entryY=0.5;entryDx=0;entryDy=0;fontSize=12;endArrow=none;endFill=0;strokeWidth=3;" edge="1" parent="D8BeeDaUjREZgvLblX8f-2" source="D8BeeDaUjREZgvLblX8f-27" target="D8BeeDaUjREZgvLblX8f-41">
          <mxGeometry relative="1" as="geometry" />
        </mxCell>
        <mxCell id="D8BeeDaUjREZgvLblX8f-43" value="" style="shape=image;html=1;verticalAlign=top;verticalLabelPosition=bottom;labelBackgroundColor=#ffffff;imageAspect=0;aspect=fixed;image=https://cdn4.iconfinder.com/data/icons/success-filloutline/64/chart-analysis-analytics-data_analytics-pie-128.png" vertex="1" parent="D8BeeDaUjREZgvLblX8f-2">
          <mxGeometry x="538" y="887" width="80" height="80" as="geometry" />
        </mxCell>
        <mxCell id="D8BeeDaUjREZgvLblX8f-44" style="edgeStyle=none;rounded=0;orthogonalLoop=1;jettySize=auto;html=1;exitX=0.5;exitY=1;exitDx=0;exitDy=0;" edge="1" parent="D8BeeDaUjREZgvLblX8f-2" source="D8BeeDaUjREZgvLblX8f-20" target="D8BeeDaUjREZgvLblX8f-43">
          <mxGeometry relative="1" as="geometry" />
        </mxCell>
        <mxCell id="D8BeeDaUjREZgvLblX8f-45" style="edgeStyle=none;rounded=0;orthogonalLoop=1;jettySize=auto;html=1;entryX=0.503;entryY=-0.017;entryDx=0;entryDy=0;entryPerimeter=0;" edge="1" parent="D8BeeDaUjREZgvLblX8f-2" source="D8BeeDaUjREZgvLblX8f-47" target="D8BeeDaUjREZgvLblX8f-31">
          <mxGeometry relative="1" as="geometry" />
        </mxCell>
        <mxCell id="D8BeeDaUjREZgvLblX8f-46" style="edgeStyle=none;rounded=0;orthogonalLoop=1;jettySize=auto;html=1;" edge="1" parent="D8BeeDaUjREZgvLblX8f-2" source="D8BeeDaUjREZgvLblX8f-47" target="D8BeeDaUjREZgvLblX8f-32">
          <mxGeometry relative="1" as="geometry" />
        </mxCell>
        <mxCell id="D8BeeDaUjREZgvLblX8f-47" value="Map" style="verticalLabelPosition=bottom;sketch=0;aspect=fixed;html=1;verticalAlign=top;strokeColor=none;align=center;outlineConnect=0;shape=mxgraph.citrix.globe;" vertex="1" parent="D8BeeDaUjREZgvLblX8f-2">
          <mxGeometry x="250.6" y="660" width="87.4" height="83.5" as="geometry" />
        </mxCell>
        <mxCell id="D8BeeDaUjREZgvLblX8f-48" style="edgeStyle=none;rounded=0;orthogonalLoop=1;jettySize=auto;html=1;strokeWidth=2;fillColor=#6a00ff;strokeColor=#3700CC;" edge="1" parent="D8BeeDaUjREZgvLblX8f-2" source="D8BeeDaUjREZgvLblX8f-38" target="D8BeeDaUjREZgvLblX8f-47">
          <mxGeometry relative="1" as="geometry" />
        </mxCell>
        <mxCell id="D8BeeDaUjREZgvLblX8f-49" style="edgeStyle=none;rounded=0;orthogonalLoop=1;jettySize=auto;html=1;exitX=0.25;exitY=1;exitDx=0;exitDy=0;entryX=0.5;entryY=0;entryDx=0;entryDy=0;" edge="1" parent="D8BeeDaUjREZgvLblX8f-2" source="D8BeeDaUjREZgvLblX8f-50" target="D8BeeDaUjREZgvLblX8f-23">
          <mxGeometry relative="1" as="geometry" />
        </mxCell>
        <mxCell id="D8BeeDaUjREZgvLblX8f-50" value="Notification" style="shape=image;html=1;verticalAlign=top;verticalLabelPosition=bottom;labelBackgroundColor=#ffffff;imageAspect=0;aspect=fixed;image=https://cdn1.iconfinder.com/data/icons/ui-essential-17/32/UI_Essential_Outline_1_essential-app-ui-bell-notification-alert-128.png" vertex="1" parent="D8BeeDaUjREZgvLblX8f-2">
          <mxGeometry x="98" y="656.25" width="91" height="91" as="geometry" />
        </mxCell>
        <mxCell id="D8BeeDaUjREZgvLblX8f-51" style="edgeStyle=none;rounded=0;orthogonalLoop=1;jettySize=auto;html=1;entryX=0.927;entryY=-0.008;entryDx=0;entryDy=0;entryPerimeter=0;strokeWidth=2;fillColor=#6a00ff;strokeColor=#3700CC;" edge="1" parent="D8BeeDaUjREZgvLblX8f-2" source="D8BeeDaUjREZgvLblX8f-38" target="D8BeeDaUjREZgvLblX8f-50">
          <mxGeometry relative="1" as="geometry" />
        </mxCell>
        <mxCell id="D8BeeDaUjREZgvLblX8f-52" value="" style="html=1;verticalLabelPosition=bottom;align=center;labelBackgroundColor=#ffffff;verticalAlign=top;strokeWidth=2;strokeColor=#0080F0;shadow=0;dashed=0;shape=mxgraph.ios7.icons.preferences;pointerEvents=1" vertex="1" parent="D8BeeDaUjREZgvLblX8f-2">
          <mxGeometry x="732" y="234" width="30" height="24" as="geometry" />
        </mxCell>
        <mxCell id="D8BeeDaUjREZgvLblX8f-53" style="rounded=0;orthogonalLoop=1;jettySize=auto;html=1;entryX=0.3;entryY=1.042;entryDx=0;entryDy=0;entryPerimeter=0;fontSize=12;endArrow=none;endFill=0;strokeWidth=3;" edge="1" parent="D8BeeDaUjREZgvLblX8f-2" source="D8BeeDaUjREZgvLblX8f-27" target="D8BeeDaUjREZgvLblX8f-52">
          <mxGeometry relative="1" as="geometry" />
        </mxCell>
        <mxCell id="D8BeeDaUjREZgvLblX8f-54" value="" style="html=1;verticalLabelPosition=bottom;align=center;labelBackgroundColor=#ffffff;verticalAlign=top;strokeWidth=2;strokeColor=#0080F0;shadow=0;dashed=0;shape=mxgraph.ios7.icons.tools;pointerEvents=1;fontFamily=Helvetica;fontSize=12;fontColor=default;fillColor=default;" vertex="1" parent="D8BeeDaUjREZgvLblX8f-2">
          <mxGeometry x="798" y="234" width="50" height="50" as="geometry" />
        </mxCell>
        <mxCell id="D8BeeDaUjREZgvLblX8f-55" value="" style="group;labelBackgroundColor=#FFCCE6;" vertex="1" connectable="0" parent="D8BeeDaUjREZgvLblX8f-2">
          <mxGeometry x="648" y="800" width="250" height="150" as="geometry" />
        </mxCell>
        <mxCell id="D8BeeDaUjREZgvLblX8f-56" value="" style="strokeWidth=1;shadow=0;dashed=0;align=center;html=1;shape=mxgraph.mockup.graphics.rrect;rSize=0;strokeColor=#999999;fontSize=7;container=0;" vertex="1" parent="D8BeeDaUjREZgvLblX8f-55">
          <mxGeometry width="250" height="150" as="geometry" />
        </mxCell>
        <mxCell id="D8BeeDaUjREZgvLblX8f-57" value="#" style="strokeColor=inherit;fillColor=inherit;gradientColor=inherit;strokeWidth=1;shadow=0;dashed=0;align=center;html=1;shape=mxgraph.mockup.graphics.rrect;rSize=0;fontColor=#666666;fontSize=7;" vertex="1" parent="D8BeeDaUjREZgvLblX8f-55">
          <mxGeometry width="8.333333333333334" height="19.999999999999993" as="geometry" />
        </mxCell>
        <mxCell id="D8BeeDaUjREZgvLblX8f-58" value="Task" style="strokeColor=inherit;fillColor=inherit;gradientColor=inherit;strokeWidth=1;shadow=0;dashed=0;align=center;html=1;shape=mxgraph.mockup.graphics.rrect;rSize=0;fontColor=#666666;fontSize=7;" vertex="1" parent="D8BeeDaUjREZgvLblX8f-55">
          <mxGeometry x="8.333333333333371" width="16.666666666666668" height="19.999999999999993" as="geometry" />
        </mxCell>
        <mxCell id="D8BeeDaUjREZgvLblX8f-59" value="Start" style="strokeColor=inherit;fillColor=inherit;gradientColor=inherit;strokeWidth=1;shadow=0;dashed=0;align=center;html=1;shape=mxgraph.mockup.graphics.rrect;rSize=0;fontColor=#666666;fontSize=7;" vertex="1" parent="D8BeeDaUjREZgvLblX8f-55">
          <mxGeometry x="25" width="54.166666666666664" height="19.999999999999993" as="geometry" />
        </mxCell>
        <mxCell id="D8BeeDaUjREZgvLblX8f-60" value="Effort" style="strokeColor=inherit;fillColor=inherit;gradientColor=inherit;strokeWidth=1;shadow=0;dashed=0;align=center;html=1;shape=mxgraph.mockup.graphics.rrect;rSize=0;fontColor=#666666;fontSize=7;" vertex="1" parent="D8BeeDaUjREZgvLblX8f-55">
          <mxGeometry x="79.16666666666663" width="20.833333333333332" height="19.999999999999993" as="geometry" />
        </mxCell>
        <mxCell id="D8BeeDaUjREZgvLblX8f-61" value="20//10//2014" style="strokeColor=inherit;fillColor=inherit;gradientColor=inherit;strokeWidth=1;shadow=0;dashed=0;align=center;html=1;shape=mxgraph.mockup.graphics.rrect;rSize=0;fontColor=#666666;fontSize=7;" vertex="1" parent="D8BeeDaUjREZgvLblX8f-55">
          <mxGeometry x="100" width="87.50000000000001" height="9.999999999999996" as="geometry" />
        </mxCell>
        <mxCell id="D8BeeDaUjREZgvLblX8f-62" value="27//10//2014" style="strokeColor=inherit;fillColor=inherit;gradientColor=inherit;strokeWidth=1;shadow=0;dashed=0;align=center;html=1;shape=mxgraph.mockup.graphics.rrect;rSize=0;fontColor=#666666;fontSize=7;" vertex="1" parent="D8BeeDaUjREZgvLblX8f-55">
          <mxGeometry x="187.5" width="62.50000000000001" height="9.999999999999996" as="geometry" />
        </mxCell>
        <mxCell id="D8BeeDaUjREZgvLblX8f-63" value="M" style="strokeColor=inherit;fillColor=inherit;gradientColor=inherit;strokeWidth=1;shadow=0;dashed=0;align=center;html=1;shape=mxgraph.mockup.graphics.rrect;rSize=0;;fontColor=#666666;fontSize=7;" vertex="1" parent="D8BeeDaUjREZgvLblX8f-55">
          <mxGeometry x="100" y="10" width="12.500000000000002" height="9.999999999999996" as="geometry" />
        </mxCell>
        <mxCell id="D8BeeDaUjREZgvLblX8f-64" value="T" style="strokeColor=inherit;fillColor=inherit;gradientColor=inherit;strokeWidth=1;shadow=0;dashed=0;align=center;html=1;shape=mxgraph.mockup.graphics.rrect;rSize=0;fontColor=#666666;fontSize=7;" vertex="1" parent="D8BeeDaUjREZgvLblX8f-55">
          <mxGeometry x="112.5" y="10" width="12.500000000000002" height="9.999999999999996" as="geometry" />
        </mxCell>
        <mxCell id="D8BeeDaUjREZgvLblX8f-65" value="W" style="strokeColor=inherit;fillColor=inherit;gradientColor=inherit;strokeWidth=1;shadow=0;dashed=0;align=center;html=1;shape=mxgraph.mockup.graphics.rrect;rSize=0;fontColor=#666666;fontSize=7;" vertex="1" parent="D8BeeDaUjREZgvLblX8f-55">
          <mxGeometry x="125" y="10" width="12.500000000000002" height="9.999999999999996" as="geometry" />
        </mxCell>
        <mxCell id="D8BeeDaUjREZgvLblX8f-66" value="T" style="strokeColor=inherit;fillColor=inherit;gradientColor=inherit;strokeWidth=1;shadow=0;dashed=0;align=center;html=1;shape=mxgraph.mockup.graphics.rrect;rSize=0;fontColor=#666666;fontSize=7;" vertex="1" parent="D8BeeDaUjREZgvLblX8f-55">
          <mxGeometry x="137.5" y="10" width="12.500000000000002" height="9.999999999999996" as="geometry" />
        </mxCell>
        <mxCell id="D8BeeDaUjREZgvLblX8f-67" value="F" style="strokeColor=inherit;fillColor=inherit;gradientColor=inherit;strokeWidth=1;shadow=0;dashed=0;align=center;html=1;shape=mxgraph.mockup.graphics.rrect;rSize=0;fontColor=#666666;fontSize=7;" vertex="1" parent="D8BeeDaUjREZgvLblX8f-55">
          <mxGeometry x="150" y="10" width="12.500000000000002" height="9.999999999999996" as="geometry" />
        </mxCell>
        <mxCell id="D8BeeDaUjREZgvLblX8f-68" value="S" style="strokeColor=inherit;fillColor=inherit;gradientColor=inherit;strokeWidth=1;shadow=0;dashed=0;align=center;html=1;shape=mxgraph.mockup.graphics.rrect;rSize=0;fontColor=#666666;fontSize=7;" vertex="1" parent="D8BeeDaUjREZgvLblX8f-55">
          <mxGeometry x="162.5" y="10" width="12.500000000000002" height="9.999999999999996" as="geometry" />
        </mxCell>
        <mxCell id="D8BeeDaUjREZgvLblX8f-69" value="S" style="strokeColor=inherit;fillColor=inherit;gradientColor=inherit;strokeWidth=1;shadow=0;dashed=0;align=center;html=1;shape=mxgraph.mockup.graphics.rrect;rSize=0;fontColor=#666666;fontSize=7;" vertex="1" parent="D8BeeDaUjREZgvLblX8f-55">
          <mxGeometry x="175" y="10" width="12.500000000000002" height="9.999999999999996" as="geometry" />
        </mxCell>
        <mxCell id="D8BeeDaUjREZgvLblX8f-70" value="M" style="strokeColor=inherit;fillColor=inherit;gradientColor=inherit;strokeWidth=1;shadow=0;dashed=0;align=center;html=1;shape=mxgraph.mockup.graphics.rrect;rSize=0;fontColor=#666666;fontSize=7;" vertex="1" parent="D8BeeDaUjREZgvLblX8f-55">
          <mxGeometry x="187.5" y="10" width="12.500000000000002" height="9.999999999999996" as="geometry" />
        </mxCell>
        <mxCell id="D8BeeDaUjREZgvLblX8f-71" value="T" style="strokeColor=inherit;fillColor=inherit;gradientColor=inherit;strokeWidth=1;shadow=0;dashed=0;align=center;html=1;shape=mxgraph.mockup.graphics.rrect;rSize=0;fontColor=#666666;fontSize=7;" vertex="1" parent="D8BeeDaUjREZgvLblX8f-55">
          <mxGeometry x="200" y="10" width="12.500000000000002" height="9.999999999999996" as="geometry" />
        </mxCell>
        <mxCell id="D8BeeDaUjREZgvLblX8f-72" value="W" style="strokeColor=inherit;fillColor=inherit;gradientColor=inherit;strokeWidth=1;shadow=0;dashed=0;align=center;html=1;shape=mxgraph.mockup.graphics.rrect;rSize=0;fontColor=#666666;fontSize=7;" vertex="1" parent="D8BeeDaUjREZgvLblX8f-55">
          <mxGeometry x="212.5" y="10" width="12.500000000000002" height="9.999999999999996" as="geometry" />
        </mxCell>
        <mxCell id="D8BeeDaUjREZgvLblX8f-73" value="T" style="strokeColor=inherit;fillColor=inherit;gradientColor=inherit;strokeWidth=1;shadow=0;dashed=0;align=center;html=1;shape=mxgraph.mockup.graphics.rrect;rSize=0;fontColor=#666666;fontSize=7;" vertex="1" parent="D8BeeDaUjREZgvLblX8f-55">
          <mxGeometry x="225" y="10" width="12.500000000000002" height="9.999999999999996" as="geometry" />
        </mxCell>
        <mxCell id="D8BeeDaUjREZgvLblX8f-74" value="F" style="strokeColor=inherit;fillColor=inherit;gradientColor=inherit;strokeWidth=1;shadow=0;dashed=0;align=center;html=1;shape=mxgraph.mockup.graphics.rrect;rSize=0;fontColor=#666666;fontSize=7;" vertex="1" parent="D8BeeDaUjREZgvLblX8f-55">
          <mxGeometry x="237.5" y="10" width="12.500000000000002" height="9.999999999999996" as="geometry" />
        </mxCell>
        <mxCell id="D8BeeDaUjREZgvLblX8f-75" value="" style="strokeColor=inherit;fillColor=inherit;gradientColor=inherit;strokeWidth=1;shadow=0;dashed=0;align=center;html=1;shape=mxgraph.mockup.graphics.rrect;rSize=0;fontColor=#666666;fontSize=7;" vertex="1" parent="D8BeeDaUjREZgvLblX8f-55">
          <mxGeometry y="20" width="100.00000000000001" height="129.99999999999997" as="geometry" />
        </mxCell>
        <mxCell id="D8BeeDaUjREZgvLblX8f-76" value="" style="strokeColor=inherit;fillColor=inherit;gradientColor=inherit;strokeWidth=1;shadow=0;dashed=0;align=center;html=1;shape=mxgraph.mockup.graphics.rrect;rSize=0;fontColor=#666666;fontSize=7;" vertex="1" parent="D8BeeDaUjREZgvLblX8f-55">
          <mxGeometry x="100" y="20" width="25.000000000000004" height="129.99999999999997" as="geometry" />
        </mxCell>
        <mxCell id="D8BeeDaUjREZgvLblX8f-77" value="" style="strokeColor=inherit;fillColor=inherit;gradientColor=inherit;strokeWidth=1;shadow=0;dashed=0;align=center;html=1;shape=mxgraph.mockup.graphics.rrect;rSize=0;fontColor=#666666;fontSize=7;" vertex="1" parent="D8BeeDaUjREZgvLblX8f-55">
          <mxGeometry x="125" y="20" width="25.000000000000004" height="129.99999999999997" as="geometry" />
        </mxCell>
        <mxCell id="D8BeeDaUjREZgvLblX8f-78" value="" style="strokeColor=inherit;fillColor=inherit;gradientColor=inherit;strokeWidth=1;shadow=0;dashed=0;align=center;html=1;shape=mxgraph.mockup.graphics.rrect;rSize=0;fontColor=#666666;fontSize=7;" vertex="1" parent="D8BeeDaUjREZgvLblX8f-55">
          <mxGeometry x="150" y="20" width="25.000000000000004" height="129.99999999999997" as="geometry" />
        </mxCell>
        <mxCell id="D8BeeDaUjREZgvLblX8f-79" value="" style="strokeColor=inherit;fillColor=inherit;gradientColor=inherit;strokeWidth=1;shadow=0;dashed=0;align=center;html=1;shape=mxgraph.mockup.graphics.rrect;rSize=0;fontColor=#666666;fontSize=7;" vertex="1" parent="D8BeeDaUjREZgvLblX8f-55">
          <mxGeometry x="175" y="20" width="25.000000000000004" height="129.99999999999997" as="geometry" />
        </mxCell>
        <mxCell id="D8BeeDaUjREZgvLblX8f-80" value="" style="strokeColor=inherit;fillColor=inherit;gradientColor=inherit;strokeWidth=1;shadow=0;dashed=0;align=center;html=1;shape=mxgraph.mockup.graphics.rrect;rSize=0;fontColor=#666666;fontSize=7;" vertex="1" parent="D8BeeDaUjREZgvLblX8f-55">
          <mxGeometry x="200" y="20" width="25.000000000000004" height="129.99999999999997" as="geometry" />
        </mxCell>
        <mxCell id="D8BeeDaUjREZgvLblX8f-81" value="" style="strokeColor=inherit;fillColor=inherit;gradientColor=inherit;strokeWidth=1;shadow=0;dashed=0;align=center;html=1;shape=mxgraph.mockup.graphics.rrect;rSize=0;fontColor=#666666;fontSize=7;" vertex="1" parent="D8BeeDaUjREZgvLblX8f-55">
          <mxGeometry x="225" y="20" width="25.000000000000004" height="129.99999999999997" as="geometry" />
        </mxCell>
        <mxCell id="D8BeeDaUjREZgvLblX8f-82" value="1" style="strokeWidth=1;shadow=0;dashed=0;align=center;html=1;shape=mxgraph.mockup.graphics.anchor;fontColor=#666666;fontSize=7;" vertex="1" parent="D8BeeDaUjREZgvLblX8f-55">
          <mxGeometry y="20" width="8.333333333333334" height="9.999999999999996" as="geometry" />
        </mxCell>
        <mxCell id="D8BeeDaUjREZgvLblX8f-83" value="Task 1" style="strokeWidth=1;shadow=0;dashed=0;align=center;html=1;shape=mxgraph.mockup.graphics.anchor;fontColor=#666666;fontSize=7;" vertex="1" parent="D8BeeDaUjREZgvLblX8f-55">
          <mxGeometry x="8.333333333333371" y="20" width="16.666666666666668" height="9.999999999999996" as="geometry" />
        </mxCell>
        <mxCell id="D8BeeDaUjREZgvLblX8f-84" value="20//10//2014 8:00 AM" style="strokeWidth=1;shadow=0;dashed=0;align=center;html=1;shape=mxgraph.mockup.graphics.anchor;fontColor=#666666;fontSize=7;" vertex="1" parent="D8BeeDaUjREZgvLblX8f-55">
          <mxGeometry x="25" y="20" width="54.166666666666664" height="9.999999999999996" as="geometry" />
        </mxCell>
        <mxCell id="D8BeeDaUjREZgvLblX8f-85" value="40h" style="strokeWidth=1;shadow=0;dashed=0;align=center;html=1;shape=mxgraph.mockup.graphics.anchor;fontColor=#666666;fontSize=7;" vertex="1" parent="D8BeeDaUjREZgvLblX8f-55">
          <mxGeometry x="79.16666666666663" y="20" width="20.833333333333332" height="9.999999999999996" as="geometry" />
        </mxCell>
        <mxCell id="D8BeeDaUjREZgvLblX8f-86" value="2" style="strokeWidth=1;shadow=0;dashed=0;align=center;html=1;shape=mxgraph.mockup.graphics.anchor;fontColor=#666666;fontSize=7;" vertex="1" parent="D8BeeDaUjREZgvLblX8f-55">
          <mxGeometry y="30" width="8.333333333333334" height="9.999999999999996" as="geometry" />
        </mxCell>
        <mxCell id="D8BeeDaUjREZgvLblX8f-87" value="Task 2" style="strokeWidth=1;shadow=0;dashed=0;align=center;html=1;shape=mxgraph.mockup.graphics.anchor;fontColor=#666666;fontSize=7;" vertex="1" parent="D8BeeDaUjREZgvLblX8f-55">
          <mxGeometry x="8.333333333333371" y="30" width="16.666666666666668" height="9.999999999999996" as="geometry" />
        </mxCell>
        <mxCell id="D8BeeDaUjREZgvLblX8f-88" value="20//10//2014 8:00 AM" style="strokeWidth=1;shadow=0;dashed=0;align=center;html=1;shape=mxgraph.mockup.graphics.anchor;fontColor=#666666;fontSize=7;" vertex="1" parent="D8BeeDaUjREZgvLblX8f-55">
          <mxGeometry x="25" y="30" width="54.166666666666664" height="9.999999999999996" as="geometry" />
        </mxCell>
        <mxCell id="D8BeeDaUjREZgvLblX8f-89" value="40h" style="strokeWidth=1;shadow=0;dashed=0;align=center;html=1;shape=mxgraph.mockup.graphics.anchor;fontColor=#666666;fontSize=7;" vertex="1" parent="D8BeeDaUjREZgvLblX8f-55">
          <mxGeometry x="79.16666666666663" y="30" width="20.833333333333332" height="9.999999999999996" as="geometry" />
        </mxCell>
        <mxCell id="D8BeeDaUjREZgvLblX8f-90" value="3" style="strokeWidth=1;shadow=0;dashed=0;align=center;html=1;shape=mxgraph.mockup.graphics.anchor;fontColor=#666666;fontSize=7;" vertex="1" parent="D8BeeDaUjREZgvLblX8f-55">
          <mxGeometry y="40" width="8.333333333333334" height="9.999999999999996" as="geometry" />
        </mxCell>
        <mxCell id="D8BeeDaUjREZgvLblX8f-91" value="Task 3" style="strokeWidth=1;shadow=0;dashed=0;align=center;html=1;shape=mxgraph.mockup.graphics.anchor;fontColor=#666666;fontSize=7;" vertex="1" parent="D8BeeDaUjREZgvLblX8f-55">
          <mxGeometry x="8.333333333333371" y="40" width="16.666666666666668" height="9.999999999999996" as="geometry" />
        </mxCell>
        <mxCell id="D8BeeDaUjREZgvLblX8f-92" value="20//10//2014 8:00 AM" style="strokeWidth=1;shadow=0;dashed=0;align=center;html=1;shape=mxgraph.mockup.graphics.anchor;fontColor=#666666;fontSize=7;" vertex="1" parent="D8BeeDaUjREZgvLblX8f-55">
          <mxGeometry x="25" y="40" width="54.166666666666664" height="9.999999999999996" as="geometry" />
        </mxCell>
        <mxCell id="D8BeeDaUjREZgvLblX8f-93" value="40h" style="strokeWidth=1;shadow=0;dashed=0;align=center;html=1;shape=mxgraph.mockup.graphics.anchor;fontColor=#666666;fontSize=7;" vertex="1" parent="D8BeeDaUjREZgvLblX8f-55">
          <mxGeometry x="79.16666666666663" y="40" width="20.833333333333332" height="9.999999999999996" as="geometry" />
        </mxCell>
        <mxCell id="D8BeeDaUjREZgvLblX8f-94" value="4" style="strokeWidth=1;shadow=0;dashed=0;align=center;html=1;shape=mxgraph.mockup.graphics.anchor;fontColor=#666666;fontSize=7;" vertex="1" parent="D8BeeDaUjREZgvLblX8f-55">
          <mxGeometry y="50" width="8.333333333333334" height="9.999999999999996" as="geometry" />
        </mxCell>
        <mxCell id="D8BeeDaUjREZgvLblX8f-95" value="Task 4" style="strokeWidth=1;shadow=0;dashed=0;align=center;html=1;shape=mxgraph.mockup.graphics.anchor;fontColor=#666666;fontSize=7;" vertex="1" parent="D8BeeDaUjREZgvLblX8f-55">
          <mxGeometry x="8.333333333333371" y="50" width="16.666666666666668" height="9.999999999999996" as="geometry" />
        </mxCell>
        <mxCell id="D8BeeDaUjREZgvLblX8f-96" value="20//10//2014 8:00 AM" style="strokeWidth=1;shadow=0;dashed=0;align=center;html=1;shape=mxgraph.mockup.graphics.anchor;fontColor=#666666;fontSize=7;" vertex="1" parent="D8BeeDaUjREZgvLblX8f-55">
          <mxGeometry x="25" y="50" width="54.166666666666664" height="9.999999999999996" as="geometry" />
        </mxCell>
        <mxCell id="D8BeeDaUjREZgvLblX8f-97" value="40h" style="strokeWidth=1;shadow=0;dashed=0;align=center;html=1;shape=mxgraph.mockup.graphics.anchor;fontColor=#666666;fontSize=7;" vertex="1" parent="D8BeeDaUjREZgvLblX8f-55">
          <mxGeometry x="79.16666666666663" y="50" width="20.833333333333332" height="9.999999999999996" as="geometry" />
        </mxCell>
        <mxCell id="D8BeeDaUjREZgvLblX8f-98" value="" style="strokeWidth=1;shadow=0;dashed=0;align=center;html=1;shape=mxgraph.mockup.graphics.rrect;rSize=0;strokeColor=none;fillColor=#aaddff;fontSize=7;" vertex="1" parent="D8BeeDaUjREZgvLblX8f-55">
          <mxGeometry x="104.16666666666663" y="22.5" width="54.166666666666664" height="4.999999999999998" as="geometry" />
        </mxCell>
        <mxCell id="D8BeeDaUjREZgvLblX8f-99" value="" style="strokeWidth=1;shadow=0;dashed=0;align=center;html=1;shape=mxgraph.mockup.graphics.rrect;rSize=0;strokeColor=none;fillColor=#aaddff;fontSize=7;" vertex="1" parent="D8BeeDaUjREZgvLblX8f-55">
          <mxGeometry x="104.16666666666663" y="32.5" width="16.666666666666668" height="4.999999999999998" as="geometry" />
        </mxCell>
        <mxCell id="D8BeeDaUjREZgvLblX8f-100" value="" style="strokeWidth=1;shadow=0;dashed=0;align=center;html=1;shape=mxgraph.mockup.graphics.rrect;rSize=0;strokeColor=none;fillColor=#aaddff;fontSize=7;" vertex="1" parent="D8BeeDaUjREZgvLblX8f-55">
          <mxGeometry x="116.66666666666663" y="42.5" width="41.666666666666664" height="4.999999999999998" as="geometry" />
        </mxCell>
        <mxCell id="D8BeeDaUjREZgvLblX8f-101" value="" style="strokeWidth=1;shadow=0;dashed=0;align=center;html=1;shape=mxgraph.mockup.graphics.rrect;rSize=0;strokeColor=none;fillColor=#aaddff;fontSize=7;" vertex="1" parent="D8BeeDaUjREZgvLblX8f-55">
          <mxGeometry x="141.66666666666674" y="52.5" width="29.166666666666668" height="4.999999999999998" as="geometry" />
        </mxCell>
        <mxCell id="D8BeeDaUjREZgvLblX8f-102" style="edgeStyle=none;rounded=0;orthogonalLoop=1;jettySize=auto;html=1;entryX=0.408;entryY=0.05;entryDx=0;entryDy=0;entryPerimeter=0;strokeWidth=2;fontSize=12;endArrow=none;endFill=0;" edge="1" parent="D8BeeDaUjREZgvLblX8f-2" source="D8BeeDaUjREZgvLblX8f-103" target="D8BeeDaUjREZgvLblX8f-60">
          <mxGeometry relative="1" as="geometry" />
        </mxCell>
        <mxCell id="D8BeeDaUjREZgvLblX8f-103" value="Progress " style="shape=image;verticalLabelPosition=bottom;verticalAlign=top;imageAspect=0;aspect=fixed;image=data:image/svg+xml,PHN2ZyB4bWxucz0iaHR0cDovL3d3dy53My5vcmcvMjAwMC9zdmciIHZlcnNpb249IjEiIHZpZXdCb3g9IjAgMCA0OCA0OCIgZW5hYmxlLWJhY2tncm91bmQ9Im5ldyAwIDAgNDggNDgiPiYjeGE7ICAgIDxnIGZpbGw9IiM0Q0FGNTAiPiYjeGE7ICAgICAgICA8cmVjdCB4PSI0MCIgeT0iMjEiIHdpZHRoPSI0IiBoZWlnaHQ9IjIzIi8+JiN4YTsgICAgICAgIDxyZWN0IHg9IjM0IiB5PSIyOCIgd2lkdGg9IjQiIGhlaWdodD0iMTYiLz4mI3hhOyAgICAgICAgPHJlY3QgeD0iMjgiIHk9IjIzIiB3aWR0aD0iNCIgaGVpZ2h0PSIyMSIvPiYjeGE7ICAgICAgICA8cmVjdCB4PSIyMiIgeT0iMjkiIHdpZHRoPSI0IiBoZWlnaHQ9IjE1Ii8+JiN4YTsgICAgICAgIDxyZWN0IHg9IjE2IiB5PSIzMiIgd2lkdGg9IjQiIGhlaWdodD0iMTIiLz4mI3hhOyAgICAgICAgPHJlY3QgeD0iMTAiIHk9IjMwIiB3aWR0aD0iNCIgaGVpZ2h0PSIxNCIvPiYjeGE7ICAgICAgICA8cmVjdCB4PSI0IiB5PSIzNCIgd2lkdGg9IjQiIGhlaWdodD0iMTAiLz4mI3hhOyAgICA8L2c+JiN4YTsgICAgPGcgZmlsbD0iIzM4OEUzQyI+JiN4YTsgICAgICAgIDxwb2x5Z29uIHBvaW50cz0iNDAuMSw5LjEgMzQsMTUuMiAzMCwxMS4yIDIwLDIxLjIgMTUsMTYuMiA0LjYsMjYuNiA3LjQsMjkuNCAxNSwyMS44IDIwLDI2LjggMzAsMTYuOCAzNCwyMC44IDQyLjksMTEuOSIvPiYjeGE7ICAgICAgICA8cG9seWdvbiBwb2ludHM9IjQ0LDggMzUsOCA0NCwxNyIvPiYjeGE7ICAgIDwvZz4mI3hhOzwvc3ZnPg==;labelBackgroundColor=none;fontSize=12;" vertex="1" parent="D8BeeDaUjREZgvLblX8f-2">
          <mxGeometry x="673" y="671" width="48" height="48" as="geometry" />
        </mxCell>
        <mxCell id="D8BeeDaUjREZgvLblX8f-104" style="rounded=0;orthogonalLoop=1;jettySize=auto;html=1;entryX=0;entryY=0.52;entryDx=0;entryDy=0;entryPerimeter=0;fontSize=12;endArrow=none;endFill=0;strokeWidth=3;" edge="1" parent="D8BeeDaUjREZgvLblX8f-2" source="D8BeeDaUjREZgvLblX8f-27" target="D8BeeDaUjREZgvLblX8f-54">
          <mxGeometry relative="1" as="geometry" />
        </mxCell>
        <mxCell id="D8BeeDaUjREZgvLblX8f-105" style="edgeStyle=none;rounded=0;orthogonalLoop=1;jettySize=auto;html=1;entryX=0.5;entryY=0;entryDx=0;entryDy=0;fontSize=12;shape=link;" edge="1" parent="D8BeeDaUjREZgvLblX8f-2" source="D8BeeDaUjREZgvLblX8f-18" target="D8BeeDaUjREZgvLblX8f-6">
          <mxGeometry relative="1" as="geometry" />
        </mxCell>
        <mxCell id="D8BeeDaUjREZgvLblX8f-106" style="edgeStyle=none;rounded=0;orthogonalLoop=1;jettySize=auto;html=1;entryX=0.5;entryY=0;entryDx=0;entryDy=0;fontSize=12;strokeWidth=2;fillColor=#6a00ff;strokeColor=#3700CC;" edge="1" parent="D8BeeDaUjREZgvLblX8f-2" source="D8BeeDaUjREZgvLblX8f-38" target="D8BeeDaUjREZgvLblX8f-103">
          <mxGeometry relative="1" as="geometry" />
        </mxCell>
        <mxCell id="D8BeeDaUjREZgvLblX8f-107" style="edgeStyle=none;shape=link;rounded=0;orthogonalLoop=1;jettySize=auto;html=1;fontSize=12;" edge="1" parent="D8BeeDaUjREZgvLblX8f-2" source="D8BeeDaUjREZgvLblX8f-13" target="D8BeeDaUjREZgvLblX8f-6">
          <mxGeometry relative="1" as="geometry" />
        </mxCell>
      </root>
    </mxGraphModel>
  </diagram>
</mxfile>
